<svg width="24" xmlns="http://www.w3.org/2000/svg" height="24" id="screenshot-5fa9c06b-70a1-80a6-8006-9d1c0575f7a6" viewBox="0 0 24 24" xmlns:xlink="http://www.w3.org/1999/xlink" fill="none" version="1.1"><g id="shape-5fa9c06b-70a1-80a6-8006-9d1c0575f7a6"><g class="frame-container-wrapper"><g class="frame-container-blur"><g class="frame-container-shadows"><g fill="none"><g class="fills" id="fills-5fa9c06b-70a1-80a6-8006-9d1c0575f7a6"><rect rx="0" ry="0" x="0" y="0" width="24" height="24" transform="matrix(1.000000, 0.000000, 0.000000, 1.000000, 0.000000, 0.000000)" class="frame-background"/></g><g class="frame-children"><g id="shape-5fa9c06b-70a1-80a6-8006-9d1c05762272" rx="0" ry="0" style="fill: rgb(0, 0, 0);"><g id="shape-5fa9c06b-70a1-80a6-8006-9d1c05762273" style="display: none;"><g class="fills" id="fills-5fa9c06b-70a1-80a6-8006-9d1c05762273"><rect width="24" height="24" x="0" transform="matrix(1.000000, 0.000000, 0.000000, 1.000000, 0.000000, 0.000000)" style="fill: none;" ry="0" fill="none" rx="0" y="0"/></g></g><g id="shape-5fa9c06b-70a1-80a6-8006-9d1c05762274"><g class="fills" id="fills-5fa9c06b-70a1-80a6-8006-9d1c05762274"><path d="M12,3C10.9000244140625,3,10,3.89990234375,10,5C10,6.10009765625,10.9000244140625,7,12,7C13.0999755859375,7,14,6.10009765625,14,5C14,3.89990234375,13.0999755859375,3,12,3ZM12,17C10.9000244140625,17,10,17.89990234375,10,19C10,20.10009765625,10.9000244140625,21,12,21C13.0999755859375,21,14,20.10009765625,14,19C14,17.89990234375,13.0999755859375,17,12,17ZM12,10C10.9000244140625,10,10,10.89990234375,10,12C10,13.10009765625,10.9000244140625,14,12,14C13.0999755859375,14,14,13.10009765625,14,12C14,10.89990234375,13.0999755859375,10,12,10Z" style="fill: rgb(0, 0, 0);"/></g></g></g></g></g></g></g></g></g></svg>