<svg width="24" xmlns="http://www.w3.org/2000/svg" height="24" id="screenshot-5fa9c06b-70a1-80a6-8006-9d1c0576861f" viewBox="0 0 24 24" xmlns:xlink="http://www.w3.org/1999/xlink" fill="none" version="1.1"><g id="shape-5fa9c06b-70a1-80a6-8006-9d1c0576861f" rx="0" ry="0" style="fill: rgb(0, 0, 0);"><g id="shape-5fa9c06b-70a1-80a6-8006-9d1c057686f7" style="display: none;"><g class="fills" id="fills-5fa9c06b-70a1-80a6-8006-9d1c057686f7"><rect width="24" height="24" x="0" transform="matrix(1.000000, 0.000000, 0.000000, 1.000000, 0.000000, 0.000000)" style="fill: none;" ry="0" fill="none" rx="0" y="0"/></g></g><g id="shape-5fa9c06b-70a1-80a6-8006-9d1c057686f8"><g class="fills" id="fills-5fa9c06b-70a1-80a6-8006-9d1c057686f8"><path d="M14,14.251953125L14,16.34130859375C13.37451171875,16.1201171875,12.701416015625,16,12,16C8.686279296875,16,6,18.6865234375,6,22L4,22C4,17.58154296875,7.581787109375,14,12,14C12.690673828125,14,13.36083984375,14.08740234375,14,14.251953125ZM12,13C8.68505859375,13,6,10.31494140625,6,7C6,3.68505859375,8.68505859375,1,12,1C15.31494140625,1,18,3.68505859375,18,7C18,10.31494140625,15.31494140625,13,12,13ZM12,11C14.2099609375,11,16,9.2099609375,16,7C16,4.7900390625,14.2099609375,3,12,3C9.7900390625,3,8,4.7900390625,8,7C8,9.2099609375,9.7900390625,11,12,11ZM18,17L18,14L20,14L20,17L23,17L23,19L20,19L20,22L18,22L18,19L15,19L15,17L18,17Z" style="fill: rgb(0, 0, 0);"/></g></g></g></svg>