<svg width="24" xmlns="http://www.w3.org/2000/svg" height="24" id="screenshot-5fa9c06b-70a1-80a6-8006-9d1c0575f74f" viewBox="0 0 24 24" xmlns:xlink="http://www.w3.org/1999/xlink" fill="none" version="1.1"><g id="shape-5fa9c06b-70a1-80a6-8006-9d1c0575f74f"><g class="frame-container-wrapper"><g class="frame-container-blur"><g class="frame-container-shadows"><g fill="none"><g class="fills" id="fills-5fa9c06b-70a1-80a6-8006-9d1c0575f74f"><rect rx="0" ry="0" x="0" y="0" width="24" height="24" transform="matrix(1.000000, 0.000000, 0.000000, 1.000000, 0.000000, 0.000000)" class="frame-background"/></g><g class="frame-children"><g id="shape-5fa9c06b-70a1-80a6-8006-9d1c0576216d" rx="0" ry="0" style="fill: rgb(0, 0, 0);"><g id="shape-5fa9c06b-70a1-80a6-8006-9d1c0576216e" style="display: none;"><g class="fills" id="fills-5fa9c06b-70a1-80a6-8006-9d1c0576216e"><rect width="24" height="24" x="0" transform="matrix(1.000000, 0.000000, 0.000000, 1.000000, 0.000000, 0.000000)" style="fill: none;" ry="0" fill="none" rx="0" y="0"/></g></g><g id="shape-5fa9c06b-70a1-80a6-8006-9d1c0576216f"><g class="fills" id="fills-5fa9c06b-70a1-80a6-8006-9d1c0576216f"><path d="M4,3C3.44769287109375,3,3,3.44775390625,3,4L3,10C3,10.55224609375,3.44769287109375,11,4,11L10,11C10.55230712890625,11,11,10.55224609375,11,10L11,4C11,3.44775390625,10.55230712890625,3,10,3L4,3ZM4,13C3.44769287109375,13,3,13.44775390625,3,14L3,20C3,20.55224609375,3.44769287109375,21,4,21L10,21C10.55230712890625,21,11,20.55224609375,11,20L11,14C11,13.44775390625,10.55230712890625,13,10,13L4,13ZM14,13C13.44769287109375,13,13,13.44775390625,13,14L13,20C13,20.55224609375,13.44769287109375,21,14,21L20,21C20.55230712890625,21,21,20.55224609375,21,20L21,14C21,13.44775390625,20.55230712890625,13,20,13L14,13ZM15,19L15,15L19,15L19,19L15,19ZM5,9L5,5L9,5L9,9L5,9ZM5,19L5,15L9,15L9,19L5,19ZM16,11L16,8L13,8L13,6L16,6L16,3L18,3L18,6L21,6L21,8L18,8L18,11L16,11Z" style="fill: rgb(0, 0, 0);"/></g></g></g></g></g></g></g></g></g></svg>