<svg width="24" xmlns="http://www.w3.org/2000/svg" height="24" id="screenshot-5fa9c06b-70a1-80a6-8006-9d1c056fc88d" viewBox="0 0 24 24" xmlns:xlink="http://www.w3.org/1999/xlink" fill="none" version="1.1"><g id="shape-5fa9c06b-70a1-80a6-8006-9d1c056fc88d"><g class="frame-container-wrapper"><g class="frame-container-blur"><g class="frame-container-shadows"><g fill="none"><g class="fills" id="fills-5fa9c06b-70a1-80a6-8006-9d1c056fc88d"><rect rx="0" ry="0" x="0" y="0" width="24" height="24" transform="matrix(1.000000, 0.000000, 0.000000, 1.000000, 0.000000, 0.000000)" class="frame-background"/></g><g class="frame-children"><g id="shape-5fa9c06b-70a1-80a6-8006-9d1c05701aaa" rx="0" ry="0" style="fill: rgb(0, 0, 0);"><g id="shape-5fa9c06b-70a1-80a6-8006-9d1c05701aab" style="display: none;"><g class="fills" id="fills-5fa9c06b-70a1-80a6-8006-9d1c05701aab"><rect width="24" height="24" x="0" transform="matrix(1.000000, 0.000000, 0.000000, 1.000000, 0.000000, 0.000000)" style="fill: none;" ry="0" fill="none" rx="0" y="0"/></g></g><g id="shape-5fa9c06b-70a1-80a6-8006-9d1c05701aac"><g class="fills" id="fills-5fa9c06b-70a1-80a6-8006-9d1c05701aac"><path d="M11.94970703125,7.94976806640625L10.53564453125,9.36395263671875L8.000732421875,6.8280029296875L8,20L6,20L6.000732421875,6.8280029296875L3.464599609375,9.36395263671875L2.05029296875,7.94976806640625L7,3L11.94970703125,7.94976806640625ZM21.94970703125,16.05029296875L17,21L12.05029296875,16.05029296875L13.464599609375,14.635986328125L16.000732421875,17.1719970703125L16,4L18,4L18.000732421875,17.1719970703125L20.53564453125,14.635986328125L21.94970703125,16.05029296875Z" style="fill: rgb(0, 0, 0);"/></g></g></g></g></g></g></g></g></g></svg>