<?xml version="1.0" encoding="UTF-8"?>
<svg id="Capa_2" data-name="Capa 2" xmlns="http://www.w3.org/2000/svg" xmlns:xlink="http://www.w3.org/1999/xlink" viewBox="0 0 1593.15 1000">
  <defs>
    <style>
      .cls-1 {
        filter: url(#drop-shadow-1);
      }

      .cls-1, .cls-2 {
        fill: #f9f2df;
      }

      .cls-1, .cls-2, .cls-3, .cls-4, .cls-5, .cls-6, .cls-7, .cls-8, .cls-9, .cls-10, .cls-11, .cls-12, .cls-13, .cls-14 {
        stroke-miterlimit: 10;
      }

      .cls-1, .cls-2, .cls-3, .cls-5, .cls-6, .cls-7, .cls-8, .cls-9, .cls-10, .cls-11, .cls-12, .cls-13, .cls-14 {
        stroke: #000;
      }

      .cls-1, .cls-2, .cls-3, .cls-5, .cls-6, .cls-8, .cls-9, .cls-10, .cls-11, .cls-12, .cls-13 {
        stroke-width: 3px;
      }

      .cls-2 {
        filter: url(#drop-shadow-2);
      }

      .cls-3, .cls-15, .cls-14 {
        fill: #969e31;
      }

      .cls-16 {
        fill: url(#Motivo_nuevo-2);
      }

      .cls-16, .cls-17, .cls-18, .cls-19, .cls-20, .cls-21, .cls-22 {
        opacity: .47;
      }

      .cls-4 {
        stroke: #c4c68b;
      }

      .cls-4, .cls-8 {
        fill: #c4c68b;
      }

      .cls-17 {
        fill: #b3ce82;
      }

      .cls-23 {
        fill: #fff;
      }

      .cls-18 {
        fill: url(#Motivo_nuevo);
      }

      .cls-19 {
        fill: url(#Motivo_nuevo-4);
      }

      .cls-6, .cls-24 {
        fill: #44624a;
      }

      .cls-25, .cls-13 {
        fill: none;
      }

      .cls-20 {
        fill: url(#Motivo_nuevo-3);
      }

      .cls-26 {
        clip-path: url(#clippath-1);
      }

      .cls-21 {
        fill: url(#Motivo_nuevo-5);
      }

      .cls-9 {
        fill: #6f7c25;
      }

      .cls-22 {
        fill: #91c199;
      }

      .cls-10 {
        fill: #ffeddc;
      }

      .cls-27, .cls-12 {
        fill: #cfac86;
      }

      .cls-11 {
        fill: #eaeac1;
      }

      .cls-14 {
        stroke-width: 2px;
      }

      .cls-28 {
        clip-path: url(#clippath);
      }
    </style>
    <pattern id="Motivo_nuevo" data-name="Motivo nuevo" x="0" y="0" width="27" height="18.86" patternTransform="translate(-121.19 -5095.76) rotate(-31.26) scale(.81)" patternUnits="userSpaceOnUse" viewBox="0 0 27 18.86">
      <g>
        <rect class="cls-25" width="27" height="18.86"/>
        <circle class="cls-24" cx="7.29" cy="4.48" r="3.3"/>
        <circle class="cls-24" cx="21.29" cy="13.8" r="3.3"/>
      </g>
    </pattern>
    <pattern id="Motivo_nuevo-2" data-name="Motivo nuevo" patternTransform="translate(-2145.32 -842.33) scale(.89)" xlink:href="#Motivo_nuevo"/>
    <pattern id="Motivo_nuevo-3" data-name="Motivo nuevo" patternTransform="translate(-2389.01 -1154.39) scale(.85)" xlink:href="#Motivo_nuevo"/>
    <pattern id="Motivo_nuevo-4" data-name="Motivo nuevo" patternTransform="translate(-5522.58 1133.22) rotate(24.95) scale(.9)" xlink:href="#Motivo_nuevo"/>
    <pattern id="Motivo_nuevo-5" data-name="Motivo nuevo" patternTransform="translate(-1384.73 3.93)" xlink:href="#Motivo_nuevo"/>
    <filter id="drop-shadow-1" x="266.83" y="535.27" width="486" height="404" filterUnits="userSpaceOnUse">
      <feOffset dx="7" dy="7"/>
      <feGaussianBlur result="blur" stdDeviation="5"/>
      <feFlood flood-color="#000" flood-opacity=".5"/>
      <feComposite in2="blur" operator="in"/>
      <feComposite in="SourceGraphic"/>
    </filter>
    <filter id="drop-shadow-2" x="863.83" y="221.27" width="516" height="536" filterUnits="userSpaceOnUse">
      <feOffset dx="7" dy="7"/>
      <feGaussianBlur result="blur-2" stdDeviation="5"/>
      <feFlood flood-color="#000" flood-opacity=".5"/>
      <feComposite in2="blur-2" operator="in"/>
      <feComposite in="SourceGraphic"/>
    </filter>
    <clipPath id="clippath">
      <polygon class="cls-25" points="277.23 791.06 277.23 915.55 648.25 915.55 648.25 810.15 277.23 791.06"/>
    </clipPath>
    <clipPath id="clippath-1">
      <path class="cls-25" d="M900.29,523.62l-24.44,124.55,145.57,26.52s22.32-89.9,89.62-71.8c67.3,18.1,38.45,99.11,38.45,99.11l141.06,28.9,25.71-118.73-415.98-88.54Z"/>
    </clipPath>
  </defs>
  <path class="cls-23" d="M824,315.47c16.5-.99,33.15-11.14,42.38-24.85,8.83,10.87,20.2,23.12,24.27,36.52,1.1,3.61,2.47,14.4,2.89,15.27.36.75,2.24,6.96,1.04,17.62-.28,2.54-.1,6.34-2.32,7.61-1.16.66-3.13,7.04-4.44,7.28-3.62.67-5.48,3.46-7.77,6.34-1.6,2-5.15,1.55-7.46,2.66-2.91,1.39-19.91.97-21.07.62-3.68-1.09-5.2-7.75-6.25-11.45-2.57-8.96-4.15-18.19-6.83-27.12-3.03-10.1-7.45-19.74-12.52-28.99"/>
  <path class="cls-23" d="M671.98,492.23c-1.51,3.27-3.9,16.09,0,22.26,2.62,4.14,9.35,9.42,12.61,13.07,4.45,4.99,7.4,12.42,10.61,18.29,2.4,4.4,7.03,16.84,8.79,21.53,1.58,4.22.07,11.57.86,16,2.4,13.42,7.06,18.26,20.21,21.87,13.15,3.61,31.04,1.32,40.74-8.27,2.04-2.02,5.27-9.48,7.59-11.19,3.43-2.53,7.67-3.7,11.28-5.94,5.06-3.14,15.81-11.11,19.03-16.12,9.97-15.52,11.23-29.92,11.6-48.36.2-9.98-3.45-21.68-12.98-24.68-5.61-1.76-11.85.13-16.63,3.54s-8.38,8.2-11.91,12.9c-4.23,5.66-8.47,11.31-12.7,16.97-2.18,2.92-4.53,5.97-7.91,7.33-2.33.94-4.91.97-7.43.99-15.73.12-32.33.02-45.91-7.92-10.79-6.3-19.06-22.41-26.28-32.61"/>
  <circle class="cls-18" cx="681.05" cy="767.74" r="96.47"/>
  <circle class="cls-16" cx="523.78" cy="200.76" r="105.27"/>
  <circle class="cls-20" cx="369.31" cy="560.27" r="161.76"/>
  <circle class="cls-19" cx="1266.79" cy="754.06" r="175.79"/>
  <circle class="cls-21" cx="1163.76" cy="239.58" r="195.84"/>
  <circle class="cls-17" cx="638.75" cy="188.1" r="173.58"/>
  <circle class="cls-22" cx="232.15" cy="648.24" r="165.56"/>
  <circle class="cls-17" cx="691.79" cy="864.35" r="126.09"/>
  <circle class="cls-22" cx="1365.74" cy="647.05" r="175.79"/>
  <circle class="cls-17" cx="939.28" cy="569.97" r="115.27"/>
  <g>
    <path class="cls-1" d="M277.23,545.76v369.79h371.01v-124.69s77.63,19.56,80.07-55.62c2.44-75.18-77.01-55.62-77.01-55.62v-133.86h-133.25s9.75,84.44-49.51,86.18c-83.13,2.44-66.01-86.18-66.01-86.18h-125.3Z"/>
    <path class="cls-23" d="M321.01,839.39c-5.81,2.32-11.43,5.46-15.68,10.06s-6.99,10.84-6.43,17.07c.11,1.23.38,2.51,1.2,3.44.92,1.03,2.34,1.41,3.58,2.02,3.09,1.51,5.16,4.58,6.4,7.78,1.24,3.21,1.77,6.64,2.65,9.97,3.11,11.85,10.52,22.51,11.8,34.7.17,1.59.24,3.24.96,4.66.63,1.23,1.68,2.18,2.71,3.09,4.22,3.75,9.12,7.75,14.76,7.31,3.7-.29,6.95-2.47,9.9-4.72,12.98-9.89,24.13-22.97,28.68-38.64.52-1.79.96-3.65.77-5.51-.23-2.27-1.38-4.34-2.71-6.19-5.49-7.65-14.08-12.35-21.46-18.2-.6-.48-1.23-1.02-1.41-1.76-.16-.65.06-1.33.2-1.98.79-3.7-.83-7.44-2.41-10.87-1.94-4.22-3.99-8.58-7.56-11.56-3.69-3.08-8.69-4.3-13.48-4.04s-9.43,1.9-13.73,4.04"/>
    <path class="cls-15" d="M324.01,789.23c-19.82-4.08-30.17-7.05-47.87-16.85-5.44-3.01-15.75-12.02-19.84-16.71-2.18-2.5-5.94-7.39-7.48-10.33-8.55-16.29-13.16-33.97-8.41-51.75,2.66-9.95,5.01-20.29,10.28-29.14,2.11-3.54,9.47-9.95,12.21-13.04,8.19-9.25,15.23-10.6,27.14-13.86,6.03-1.65,20.78-3.19,26.77-1.38,2.16.65-1.23,2.99.11,4.8,1.76,2.36,1.98,5.49,2.13,8.43.55,10.85.72,10.85.93,21.71,0,.19,2.7-.63,1.95,5.93-.08.73-3.22,2.26-3.8,1.81-3.78-2.94-7.88-1.86-12.31-3.69-4.56-1.89-9.58-3.14-14.44-2.22-5.84,1.11-10.66,5.2-14.66,9.59-2.83,3.1-5.43,6.48-7.09,10.33-2.84,6.57-2.75,13.98-2.62,21.13.09,4.6.18,9.23,1.16,13.72,3.33,15.23,16.54,26.67,30.97,32.59s30.21,7.35,45.62,9.7c-5.93,6.51-12.66,12.3-19.99,17.19"/>
    <path class="cls-2" d="M959.05,231.72l357.12,71.42s24.31,3.76,38.1,36.11c12.76,29.93-62.73,393.66-62.73,393.66l-144.08-29.55s32.02-81.28-36.94-98.52c-68.96-17.24-88.66,71.42-88.66,71.42l-147.77-27.09,29.55-141.62s87.43,38.18,103.44-46.8-73.89-86.2-73.89-86.2l25.86-142.85Z"/>
    <g>
      <path class="cls-23" d="M1266.7,590.18c-5.68,4.15-11.42,8.35-16.01,13.7s-7.96,12.02-8.07,19.06c-.07,4.76,1.34,9.39,2.74,13.94,2.4,7.8,4.79,15.59,7.19,23.39.25.82.52,1.66,1.06,2.32,1.05,1.28,2.87,1.58,4.52,1.69,16.02,1.09,32.3-7.95,39.84-22.13,3.79-7.13,5.44-15.18,8.55-22.63,1.21-2.91,2.82-5.9,5.6-7.37,1.61-.86,3.48-1.12,5.13-1.9,4.56-2.15,6.41-7.59,7.46-12.52,1.39-6.49,2.2-13.11,2.41-19.74.06-1.81.05-3.72-.86-5.29-.92-1.59-2.61-2.55-4.26-3.37-7.33-3.64-15.27-5.87-23.15-8.08-2.82-.79-5.74-1.59-8.65-1.21-4.99.66-8.91,4.69-11.43,9.05s-4.05,9.25-6.71,13.53c-2.12,3.41-4.93,6.39-8.21,8.7"/>
      <path class="cls-23" d="M1265.94,588.89c-8.23,6.01-16.81,12.33-21.54,21.63-2.25,4.42-3.54,9.34-3.23,14.31.37,5.75,2.39,11.28,4.07,16.74,1.74,5.65,3.47,11.3,5.21,16.95.67,2.18,1.13,4.73,3.18,6.06,1.83,1.19,4.24,1.24,6.35,1.28,8.83.17,17.68-2.57,25.01-7.45,7.81-5.19,13.39-12.47,16.84-21.15,1.96-4.94,3.35-10.08,5.23-15.05.82-2.18,1.69-4.42,3.08-6.31,1.55-2.12,3.55-2.8,5.94-3.6,4.38-1.45,7-4.79,8.61-8.99,1.8-4.71,2.48-9.94,3.11-14.92.36-2.81.61-5.63.75-8.46.13-2.52.38-5.28-.79-7.62-1.1-2.19-3.29-3.44-5.4-4.48-2.47-1.21-5.02-2.27-7.6-3.22-5.15-1.91-10.44-3.39-15.72-4.86-4.94-1.38-9.86-2.06-14.42.81-8.85,5.57-9.79,16.98-16.17,24.53-1.57,1.86-3.36,3.53-5.35,4.94-1.56,1.11-.06,3.71,1.51,2.59,3.8-2.71,6.99-6.14,9.32-10.19,2.45-4.27,3.95-9.02,6.53-13.23,2.12-3.45,5.28-6.78,9.4-7.58,2.58-.5,5.21.16,7.7.83s4.92,1.37,7.36,2.09c4.98,1.47,9.94,3.1,14.66,5.28,1.9.88,4.48,1.83,5.49,3.81,1.06,2.09.56,5.01.42,7.26-.32,5.44-1.05,10.86-2.18,16.19-.79,3.74-1.89,7.93-4.85,10.58-1.66,1.48-3.79,1.81-5.79,2.6s-3.62,2.08-4.91,3.82c-2.76,3.7-4.1,8.52-5.52,12.85-1.55,4.69-3,9.45-5.26,13.87-1.9,3.72-4.39,7.08-7.36,10.02-5.83,5.76-13.37,9.74-21.41,11.33-1.98.39-3.99.63-6.01.7s-4.26.21-6.15-.42c-2.16-.72-2.42-3.77-3-5.66-.81-2.63-1.61-5.25-2.42-7.88-1.62-5.28-3.33-10.53-4.84-15.84-1.41-4.93-2.25-9.95-1.03-15.01,2.26-9.4,9.44-16.44,16.82-22.18,1.93-1.5,3.9-2.94,5.88-4.38,1.54-1.13.05-3.73-1.51-2.59h0Z"/>
    </g>
    <g>
      <path class="cls-27" d="M896.36,351.75c14.27,17.73,33.21,32.3,55.16,38.31,13.69,3.75,28.08,4.1,42.26,3.49-3.66,9.99-7.32,19.99-10.98,29.98-.12.33-.26.69-.54.9-.48.37-1.16.21-1.74.05-6.5-1.82-13.3-2.12-19.99-3.05-22.8-3.16-44.05-13.64-63.03-26.67-5.64-3.87-11.55-8.64-12.74-15.38,7.33-6.97,9.71-17.54,11.74-27.45"/>
      <path class="cls-27" d="M895.3,352.81c8.63,10.69,18.84,20.17,30.51,27.46,12.37,7.73,26.07,12.42,40.54,14.11,9.1,1.06,18.29,1.05,27.44.67l-1.45-1.9c-3.55,9.68-7.09,19.36-10.64,29.04-.06.17-.25.88-.34.94-.04.02-.31-.04-.26-.05-.43.06-1.34-.36-1.77-.46-1.22-.3-2.44-.54-3.68-.76-2.37-.42-4.77-.71-7.16-.99-4.69-.54-9.37-1.05-14.01-1.98-17.64-3.53-34.14-11.27-49.27-20.84-4.07-2.57-8.23-5.17-11.89-8.3-3.36-2.87-6.25-6.31-7.1-10.76l-.39,1.46c7.63-7.37,10.07-18.09,12.13-28.11.39-1.88-2.5-2.69-2.89-.8-1.08,5.25-2.21,10.54-4.16,15.55-.93,2.39-2.09,4.69-3.5,6.83-.71,1.06-1.48,2.07-2.34,3.02-.42.47-.96.89-1.35,1.38-.56.7-.43,1.37-.23,2.2,1.15,4.98,4.75,8.96,8.62,12.09,4.44,3.59,9.35,6.67,14.21,9.65,10.06,6.15,20.69,11.45,31.85,15.29,5.63,1.94,11.39,3.49,17.24,4.56,6.14,1.13,12.38,1.48,18.53,2.48,1.78.29,3.55.64,5.29,1.09,1.38.36,2.9.88,4.11-.19.6-.53.83-1.31,1.1-2.03.35-.94.69-1.87,1.03-2.81l1.89-5.15c2.63-7.18,5.26-14.37,7.89-21.55.33-.9-.53-1.94-1.45-1.9-15.48.65-31.24.18-46.09-4.71-12.78-4.21-24.47-11.39-34.56-20.22-5.72-5-10.95-10.53-15.71-16.43-1.21-1.5-3.32.63-2.12,2.12h0Z"/>
    </g>
    <path class="cls-12" d="M1240.97,252.25s4.95-6.66,12.02-16.21c7.07-9.55,29.34-26.16,38.18-32.88s12.37-11.31,3.54-25.81c-8.84-14.5-33.59-1.41-43.84-1.41s-12.02-11.67-35.71-14.85c-23.69-3.18-37.83,19.44-54.09,20.51-16.26,1.06-25.1-9.19-41.01-22.63-15.91-13.43-43.13-1.06-51.97,2.83-8.84,3.89-8.84,18.74,2.12,31.11s26.87,45.25,26.87,45.25l23.51,17.22,101.82,8.57,18.56-11.7Z"/>
    <path class="cls-12" d="M1093.87,262.56s-78.9,59.39-101.97,133.37-26.25,124.89,7.16,154.32c33.41,29.43,87.5,50.11,130.46,53.3,42.96,3.18,129.66,1.59,167.05-59.66,37.39-61.25,27.84-110.57,9.55-157.5s-68.41-109.77-68.41-109.77"/>
    <g>
      <path class="cls-15" d="M741.95,607.56c-.2,7.43-2.82,14.56-5.45,21.52-9.89,26.18-20.57,52.53-37.87,74.53-17.3,21.99-40.42,39.4-68.32,41.54l4.48-35.6c12.26-5.41,22.1-13.35,31.22-23.18,5.66-6.1,10.53-12.89,15.04-19.89,13.84-21.51,24.94-45.89,27.34-71.36l9.29,11.5,24.27.95Z"/>
      <path d="M740.45,607.56c-.24,6.88-2.51,13.43-4.9,19.81-2.24,5.96-4.52,11.91-6.9,17.82-4.79,11.91-10.03,23.67-16.29,34.89-11.4,20.41-26.72,39.6-46.93,51.86-10.68,6.47-22.63,10.71-35.12,11.7l1.5,1.5c1.31-10.4,2.62-20.79,3.93-31.19.18-1.47.37-2.94.55-4.41l-.74,1.3c16.51-7.34,30.09-20.12,40.66-34.6,11.15-15.28,20.49-32.34,26.75-50.21,3.5-10,5.92-20.36,6.93-30.91l-2.56,1.06c1.68,2.08,3.36,4.16,5.04,6.23l3.17,3.92c.63.78,1.08,1.65,2.15,1.79,1.93.26,3.98.16,5.92.23,3.77.15,7.53.29,11.3.44,2.35.09,4.69.18,7.04.27,1.93.08,1.93-2.92,0-3-7.06-.28-14.13-.55-21.19-.83-1.02-.04-2.05-.08-3.07-.12l1.06.44c-3.1-3.83-6.19-7.67-9.29-11.5-.91-1.12-2.45-.08-2.56,1.06-1.5,15.55-6.25,30.66-12.8,44.78-3.28,7.07-7,13.92-11.05,20.58-4.15,6.82-8.57,13.51-13.62,19.7-9.23,11.29-20.56,21.18-33.85,27.38-1.12.52-2.07.74-2.29,2.06-.04.22-.06.45-.08.67l-.41,3.25-1.41,11.22-1.57,12.45c-.32,2.51-.75,5.04-.95,7.57,0,.12-.03.25-.05.37-.1.76.77,1.56,1.5,1.5,23.23-1.84,43.69-14.26,59.62-30.75,17.91-18.55,29.9-41.55,39.69-65.18,2.83-6.82,5.49-13.71,8.1-20.61,2.75-7.28,5.47-14.67,5.74-22.54.07-1.93-2.93-1.93-3,0Z"/>
    </g>
    <path d="M315.65,633.76c-18.05.82-37.1,1.82-51.89,13.47-12.06,9.5-19.71,23.77-23.5,38.45-3.89,15.06-4.39,31.77.75,46.59,5.52,15.93,16.91,30.27,31.06,39.43,6.84,4.43,14.52,7.55,22.19,10.2,7.78,2.7,15.75,4.87,23.76,6.76,1.75.41,3.5.81,5.26,1.2,1.88.41,2.69-2.48.8-2.89-15.3-3.37-31-7.38-44.97-14.67-14.23-7.42-25.96-20.17-32.71-34.67s-7.4-30.14-4.55-45.3c2.72-14.44,8.96-28.67,19.58-39.05,5.85-5.72,12.84-9.82,20.66-12.23,8.67-2.67,17.76-3.47,26.78-3.95,2.26-.12,4.53-.22,6.79-.33,1.92-.09,1.93-3.09,0-3h0Z"/>
    <g>
      <path d="M301.75,674.22c-6.57,12.01-12.98,21.72-13,35.68-.31,15.81,7.73,31.51,21.32,39.71,8.86,5.57,15.35,7.76,25.62,9.65l4.66,11.67c-15.63,6.03-32.9-.83-48.16-10.07-24.03-14.05-34.81-57.95-14.92-79.81,12.32-13,28.69-8.09,43.15-1.1"/>
      <path d="M300.46,673.46c-3.82,6.97-8.01,13.82-10.62,21.36s-3.19,15.27-2.06,22.97c1.04,7.14,3.75,14.09,7.83,20.04s9.7,10.77,16.09,14.52c7.36,4.32,15.23,6.8,23.6,8.35l-1.05-1.05c1.55,3.89,3.1,7.78,4.66,11.67l1.05-1.85c-14.4,5.45-29.74-.21-42.49-7.3-4.87-2.71-9.4-5.59-13.25-9.66-3.57-3.77-6.48-8.12-8.83-12.74-4.85-9.53-7.35-20.4-6.94-31.09.39-10.08,3.65-20.86,11.22-27.9,4.71-4.38,10.74-6.51,17.14-6.34s12.55,2.22,18.32,4.72c1.52.66,3.03,1.36,4.53,2.08,1.73.84,3.25-1.75,1.51-2.59-11.65-5.62-26.09-10.8-38.35-3.89-10.2,5.75-15.47,17.59-16.94,28.76-1.49,11.33.51,23.07,4.95,33.55,4.18,9.86,10.84,19.17,20.12,24.8,13.08,7.92,28.7,15.25,44.37,12.09,1.85-.37,3.66-.91,5.42-1.58.69-.26,1.37-1.04,1.05-1.85-1.53-3.84-3.04-7.7-4.6-11.53-.69-1.7-3.24-1.59-4.84-1.93-2.13-.46-4.24-.98-6.33-1.61-4.31-1.31-8.39-3.14-12.28-5.39s-7.63-4.78-10.82-8.02c-3.1-3.15-5.67-6.77-7.69-10.7-4.14-8.05-5.72-17.26-4.72-26.24,1.23-11.05,7.3-20.6,12.53-30.14.93-1.69-1.66-3.21-2.59-1.51h0Z"/>
    </g>
    <path class="cls-14" d="M315.99,592.76c-6.89,20.2-2.04,37.88.79,61.8,2.03,14.27,4.13,28.89,6.33,43.06,4.05,26.6,9.08,52.49,19.15,75.47,8.09,18.91,18.41,37.31,30.87,53.77,42.31,59.02,121.11,59.28,182.93,33.16,20.84-8.87,39.97-21.09,51.63-40.36,19.76-33.32,24.02-81.09,27.71-120.44,2.36-35.09,3.83-108.79-14.58-137.11-8.07-13.22-28.04-17.1-44.77-18.73-37.2-3.91-84.03-3.18-122.23.54-35.65,4.01-123.95,12.12-137.77,48.71l-.05.12Z"/>
    <ellipse class="cls-11" cx="499.29" cy="710.1" rx="29.17" ry="45.08"/>
    <ellipse class="cls-11" cx="588.39" cy="700.55" rx="27.03" ry="41.78"/>
    <ellipse class="cls-7" cx="506.77" cy="697.57" rx="18.38" ry="30.4"/>
    <ellipse class="cls-7" cx="596.59" cy="693.2" rx="17.04" ry="28.18"/>
    <path d="M672.19,489.72c-4.76,4.38-4.35,12.19-3.43,18.02.41,2.63,1.02,5.28,2.01,7.75,1.42,3.52,4.16,6.01,7.09,8.29,3.51,2.73,6.72,5.56,9.27,9.24,2.58,3.73,4.57,7.85,6.19,12.07,1.8,4.68,3.19,9.5,5.17,14.11,1.74,4.04,4.03,7.76,6.92,11.08,6.1,7.02,14.59,11.96,23.72,13.71,1.89.36,2.69-2.53.8-2.89-7.81-1.5-15.01-5.36-20.6-11.01-2.76-2.79-5.08-5.98-6.87-9.48-2.23-4.35-3.63-9.05-5.26-13.64-2.87-8.1-6.7-16.21-13.18-22.06-2.93-2.64-6.54-4.66-8.96-7.84-1.49-1.96-2.11-4.17-2.7-6.59-.81-3.32-1.26-6.75-1.12-10.17.12-3.02.75-6.34,3.07-8.47,1.42-1.31-.7-3.43-2.12-2.12h0Z"/>
    <path d="M744.11,586.33c18.93,5.16,39.84.56,53.94-13.35,6.73-6.64,11.1-14.94,14.14-23.82,3.12-9.09,4.45-18.53,4.59-28.12s-.49-20.02-5.42-28.37c-.98-1.66-3.58-.15-2.59,1.51,4.13,6.98,4.9,15.66,5.01,23.61.13,8.89-.7,17.74-3.15,26.31s-6.19,17.26-12.2,24.1c-5.62,6.39-12.86,11.36-20.9,14.2-10.48,3.7-21.94,3.95-32.64,1.03-1.87-.51-2.66,2.38-.8,2.89h0Z"/>
    <path d="M703,568.34c-.91,7.96-.8,16.21,2.52,23.64,3.01,6.72,8.42,11.44,15.41,13.7,7.64,2.48,15.98,2.93,23.91,1.93,6.14-.78,12.28-2.31,17.74-5.32,5.95-3.28,10.57-8.39,12.56-14.95.56-1.85-2.33-2.64-2.89-.8-3.41,11.24-15.01,16.11-25.7,17.83-7.13,1.14-14.46.99-21.49-.66-3.48-.82-6.91-2-9.83-4.11-2.49-1.79-4.48-4.23-5.97-6.89-4.15-7.4-4.18-16.17-3.23-24.37.22-1.91-2.78-1.9-3,0h0Z"/>
    <path class="cls-6" d="M743.67,128.09c-253.01,105.94-249.9,104.7-249.9,104.7,0,0-14.96,6.23-18.7,23.06-3.74,16.83,0,31.78,0,31.78l103.45,242.42,94.72-39.26s17.45,69.8,78.52,43c61.07-26.8,9.35-79.77,9.35-79.77l102.2-40.51-43-97.22s68.55-8.1,45.49-67.3c-23.06-59.2-78.52-17.45-78.52-17.45l-43.62-103.45Z"/>
    <path class="cls-13" d="M500.34,782.93c-1.06,9.21-2.75,19.69,3.42,27.38,4.99,6.32,14.67,8.13,21.76,3.9,6.94-4.06,10.55-11.69,14.3-18.6"/>
    <path class="cls-3" d="M550.29,738.8s34.45-17.74,36.49,8.43-25.43,25.81-25.43,25.81"/>
    <ellipse class="cls-10" cx="1168.4" cy="415.51" rx="45.08" ry="29.17" transform="translate(688.92 1559.14) rotate(-86.83)"/>
    <ellipse class="cls-10" cx="1079.97" cy="401.05" rx="41.78" ry="27.03" transform="translate(619.81 1457.19) rotate(-86.83)"/>
    <ellipse class="cls-7" cx="1157.73" cy="413.21" rx="30.4" ry="18.38" transform="translate(681.13 1546.31) rotate(-86.83)"/>
    <ellipse class="cls-7" cx="1069.72" cy="405.46" rx="28.18" ry="17.04" transform="translate(605.72 1451.12) rotate(-86.83)"/>
    <path class="cls-5" d="M1163.33,488.17c.55,9.25,1.66,19.81-4.93,27.15-5.33,6.03-15.1,7.3-21.95,2.69-6.7-4.44-9.88-12.25-13.25-19.36l40.12-10.48Z"/>
    <path class="cls-12" d="M1115.89,441.34s-33.42-19.61-36.91,6.39c-3.48,26.01,23.97,27.18,23.97,27.18"/>
    <path class="cls-5" d="M1090.38,255.05c-1.83,3.14-.45,7.25,2.87,8.5,10.37,3.92,33.58,10.33,64.38,13.88,35.87,4.14,69.68.53,81.98-1.12,2.8-.38,4.89-2.85,4.89-5.79v-.16c0-3.52-2.96-6.24-6.32-5.79-13.97,1.87-48.66,5.64-79.08,1.84-29.88-3.74-52.88-10.74-62-13.82-4.45-1.5-6.72,2.46-6.72,2.46Z"/>
    <path class="cls-5" d="M1091,242.4c-1.83,3.14-.45,7.25,2.87,8.5,10.37,3.92,32.97,11.32,63.76,14.87,35.87,4.14,69.68.53,81.98-1.12,2.8-.38,4.89-2.85,4.89-5.79v-.16c0-3.52-2.96-6.24-6.32-5.79-13.97,1.87-48.66,5.64-79.08,1.84-29.88-3.74-52.39-11.39-61.39-14.81-2.52-.96-5.33.08-6.72,2.46h0Z"/>
    <g>
      <path class="cls-23" d="M825.21,316.28c-5.97,3.33-10.18,7.08-14.66,12.25-2.35,2.72-4.71,5.54-5.98,8.89s-1.28,7.41.86,10.29c3.26,4.4,9.79,4.41,15.16,3.34,11.39-2.27,22.17-7.56,30.94-15.18"/>
      <path d="M824.45,314.98c-5.62,3.17-10.44,7.31-14.68,12.16-4.25,4.86-8.72,10.64-7.3,17.52,1.23,5.95,6.96,8.46,12.52,8.48,6.25.03,12.71-2.06,18.42-4.41,6.99-2.88,13.44-6.85,19.17-11.79,1.46-1.26-.67-3.38-2.12-2.12-8.86,7.65-20.17,13.34-31.82,15.06-4.44.66-10.5.45-12.72-4.23-2.7-5.71,1.87-11.65,5.39-15.74,4.24-4.92,8.95-9.14,14.63-12.34,1.68-.95.17-3.54-1.51-2.59h0Z"/>
    </g>
    <path d="M866.19,292.41c5.86,6.81,11.97,13.48,16.77,21.11,4.12,6.55,7.31,13.81,7.03,21.69-.51,13.89-11.09,25.06-20.96,33.67-6.14,5.35-12.7,10.18-19.21,15.08-1.52,1.15-.03,3.75,1.51,2.59,11.95-8.99,24.65-17.88,33.56-30.1,4.08-5.59,7.11-11.97,7.92-18.9.91-7.85-1.53-15.41-5.29-22.22-5.11-9.25-12.35-17.09-19.2-25.05-1.26-1.47-3.38.66-2.12,2.12h0Z"/>
    <path d="M890.21,339.05c4.47,7.5,4.4,17.16,1.72,25.27-1.37,4.16-3.56,7.98-6.61,11.14-4.07,4.21-9.13,6.03-14.7,7.4-3.12.77-6.29,1.64-9.53,1.41-2.18-.16-5.13-.1-6.36-2.25-.96-1.68-3.55-.17-2.59,1.51,1.26,2.2,3.42,3.09,5.84,3.42,3.01.42,5.92.42,8.91-.16,5.96-1.15,12.43-2.66,17.35-6.38,8.33-6.31,12.45-16.88,12.51-27.14.03-5.46-1.14-11.01-3.95-15.74-.99-1.66-3.58-.15-2.59,1.51h0Z"/>
    <path d="M893.91,351.42c8.82,11.98,20.14,22.03,32.99,29.53s27.14,12.43,41.92,13.8c8.22.76,16.53.31,24.61-1.4,1.89-.4,1.09-3.29-.8-2.89-13.87,2.93-28.31,1.79-41.82-2.29s-26.81-11.37-37.83-20.72c-6.13-5.2-11.71-11.07-16.47-17.55-1.13-1.54-3.74-.04-2.59,1.51h0Z"/>
    <path d="M878.29,383.54c6.39,14.18,18.56,24.52,30.44,34.03,6.63,5.31,13.44,10.16,21.35,13.39,7.45,3.04,15.38,4.62,23.37,5.36,9.21.85,18.49.56,27.72.15,1.92-.09,1.93-3.09,0-3-15.73.71-31.94,1.08-47.01-4.16-7.8-2.72-14.67-7.07-21.14-12.14-6-4.7-11.94-9.54-17.38-14.9-6-5.9-11.27-12.53-14.75-20.24-.79-1.76-3.38-.23-2.59,1.51h0Z"/>
    <g>
      <path class="cls-8" d="M724.66,274.54c-14.39-34.5-54.03-50.79-88.52-36.4-34.5,14.39-50.79,54.03-36.4,88.52,10.51,25.19,34.49,40.66,60.09,41.57l9.48,22.73,52.11-21.74-9.48-22.73c17.36-18.84,23.23-46.76,12.72-71.96Z"/>
      <rect class="cls-8" x="666.27" y="379.48" width="64.06" height="14.48" rx="6.81" ry="6.81" transform="translate(-95.07 298.73) rotate(-22.65)"/>
      <rect class="cls-8" x="678.42" y="392.84" width="50.89" height="14.48" rx="6.81" ry="6.81" transform="translate(-99.78 301.91) rotate(-22.65)"/>
      <rect class="cls-8" x="699.75" y="405.97" width="20.49" height="14.48" rx="6.81" ry="6.81" transform="translate(-104.37 305.28) rotate(-22.65)"/>
      <path class="cls-8" d="M685.92,382.12c-6.99-15.25-15.97-38.66-23.67-55.07-.91-1.9-1.89-3.85-3.4-5.33-5.2-5.73-16.34.16-13.61,7.71,3.8,9.3,22.09-.65,29.13-3.44,6.98-3.31,23.06-10.17,19.45-18.54-3.7-6.49-14.25-2.41-14.44,4.56-.29,3.54,1.12,6.92,2.32,10.1,6.14,15.55,15.1,36.59,21.68,52.73"/>
    </g>
    <g class="cls-28">
      <g>
        <path d="M459.97,966.72c10.31-11.99,18.35-26.14,22.03-41.52.76-3.19,1.33-6.43,1.69-9.7,1.39-12.49-.23-25.32-5.39-36.75l-42.36-8.19c8.03,13.28,9.66,29.79,6.32,44.99-.25,1.16-.54,2.31-.85,3.45-4.4,16.11-14.03,30.43-25.63,42.45"/>
        <path d="M461.03,967.78c17.87-20.86,28.9-48.51,23.05-76.13-.72-3.39-1.69-6.72-2.93-9.96-.55-1.42-1.05-4.03-2.71-4.44-1.75-.43-3.56-.69-5.33-1.03-7.1-1.37-14.19-2.74-21.29-4.11-5.16-1-10.32-1.99-15.48-2.99-1.23-.24-2.41,1.01-1.69,2.2,6.63,11.07,8.75,24.23,7.32,36.96-1.43,12.72-6.63,24.76-13.66,35.36-3.98,6-8.59,11.56-13.58,16.75-1.34,1.39.78,3.52,2.12,2.12,9.15-9.51,17.1-20.36,22.3-32.54,5.25-12.31,7.48-25.77,5.53-39.07-1.09-7.43-3.57-14.65-7.43-21.09l-1.69,2.2c4.77.92,9.53,1.84,14.3,2.76l22.81,4.41c1.75.34,3.5.68,5.25,1.02l-.9-.69c10.19,22.77,5.7,49.13-6.6,70.1-3.34,5.69-7.21,11.04-11.5,16.05-1.25,1.46.86,3.59,2.12,2.12h0Z"/>
      </g>
      <g>
        <path d="M579.68,845.33c16.67,9.19,32.05,27.19,39.16,44.84,7.12,17.65,8.85,37.22,6.56,56.12l-38.86,1.78c.91-9.62-.89-19.27-2.67-28.77-.98-5.21-1.97-10.45-3.85-15.41-6.52-17.2-24.44-32.64-40.2-42.12l39.86-16.44Z"/>
        <path d="M578.92,846.63c12.58,6.99,23.14,17.74,30.96,29.75,8.38,12.87,12.98,27.75,14.43,42.99.86,8.96.65,18-.41,26.94l1.5-1.5c-11.35.52-22.69,1.04-34.04,1.56-1.61.07-3.21.15-4.82.22l1.5,1.5c.71-7.91-.33-15.82-1.7-23.6-1.3-7.38-2.44-15.03-5.28-22.01-4.79-11.76-13.67-21.56-23.26-29.66-5.4-4.56-11.17-8.68-17.22-12.33l-.36,2.74c4.49-1.85,8.97-3.7,13.46-5.55,7.15-2.95,14.31-5.9,21.46-8.85,1.65-.68,3.29-1.36,4.94-2.04,1.76-.73.99-3.63-.8-2.89-4.49,1.85-8.97,3.7-13.46,5.55-7.15,2.95-14.31,5.9-21.46,8.85-1.65.68-3.29,1.36-4.94,2.04-1.15.47-1.55,2.02-.36,2.74,10.57,6.38,20.47,14.19,28.54,23.58,3.97,4.62,7.47,9.71,9.99,15.27,2.88,6.37,4.02,13.38,5.29,20.2,1.59,8.56,2.95,17.23,2.17,25.96-.07.78.74,1.53,1.5,1.5,11.35-.52,22.69-1.04,34.04-1.56,1.61-.07,3.21-.15,4.82-.22.88-.04,1.4-.66,1.5-1.5,1.94-16.29.98-33.06-3.87-48.78-4.46-14.48-12.55-27.51-23.12-38.33-5.75-5.89-12.26-11.14-19.48-15.14-1.69-.94-3.2,1.65-1.51,2.59Z"/>
      </g>
    </g>
    <g class="cls-26">
      <path class="cls-27" d="M1168.56,689.78c-1.71,4.99-5.23,5.55-4.19,10.72,1.05,5.21,10.21,10.8,14.29,14.21,3.75,3.14,2.84,8.75,6.74,11.71,5.23,3.96,11.67,6.05,18.16,6.97s13.08.74,19.63.56c3.28-.09,7.1-.47,8.86-3.24,1.04-1.63,1.05-3.7.93-5.62-.23-3.66-.88-7.43-2.97-10.44-3.02-4.35-8.83-6.83-10.15-11.96-.71-2.77,2.08-5.36,1.68-8.19-.76-5.34-3.98-11.28-9.26-12.4-5.28-1.12-14.59,1.65-19.89,2.71-7.78,1.57-15.56,3.14-23.35,4.71"/>
      <g>
        <path class="cls-27" d="M1170.8,696.76c-10.31-11.99-18.35-26.14-22.03-41.52-3.68-15.38-1.49-35.93,5.02-50.34l39.67-1.89c-8.65,14.29-8.51,29.92-4.11,46.04,4.4,16.11,14.03,30.43,25.63,42.45"/>
        <path d="M1171.86,695.7c-8.55-9.98-15.55-21.43-19.68-33.94-3.91-11.82-4.57-24.26-2.65-36.54,1.04-6.7,2.78-13.37,5.56-19.56l-1.3.74c11.56-.55,23.12-1.1,34.68-1.66,1.66-.08,3.33-.16,4.99-.24l-1.3-2.26c-13.8,23.04-6.05,52.48,8.05,73.47,4.04,6.01,8.68,11.62,13.7,16.84,1.34,1.39,3.46-.73,2.12-2.12-8.5-8.84-15.9-18.83-20.99-30.03-5.1-11.23-8.06-24.17-6.92-36.53.66-7.13,2.95-13.97,6.63-20.11.57-.94-.15-2.31-1.3-2.26-11.56.55-23.12,1.1-34.68,1.66-1.66.08-3.33.16-4.99.24-.49.02-1.08.26-1.3.74-5.25,11.71-7.42,24.98-6.95,37.77s4.7,25.78,11.07,37.23c3.71,6.66,8.17,12.89,13.13,18.68,1.26,1.47,3.37-.66,2.12-2.12h0Z"/>
      </g>
      <g>
        <path class="cls-27" d="M1044.86,579.84c-16.67,9.19-25.82,22.71-32.93,40.37s-8.85,37.22-6.56,56.12l38.86,1.78c-.91-9.62.89-19.27,2.67-28.77.98-5.21,1.97-10.45,3.85-15.41,6.52-17.2,21.24-27.81,37-37.3"/>
        <path d="M1044.1,578.55c-11.42,6.34-20.44,15.68-26.87,27.01-7.52,13.26-12.17,28-13.7,43.15-.93,9.19-.75,18.46.34,27.62.1.84.61,1.46,1.5,1.5,11.35.52,22.69,1.04,34.04,1.56,1.61.07,3.21.15,4.82.22.76.03,1.57-.72,1.5-1.5-.67-7.4.2-14.79,1.47-22.08,1.2-6.9,2.28-13.98,4.6-20.61,3.82-10.88,11.59-19.63,20.55-26.66,5.11-4.01,10.61-7.5,16.16-10.84,1.65-.99.15-3.59-1.51-2.59-10.14,6.11-20.28,12.83-28,21.94-3.78,4.45-6.88,9.39-9.11,14.79-2.73,6.61-3.87,13.74-5.15,20.74-1.52,8.34-2.77,16.81-2.01,25.3l1.5-1.5c-11.35-.52-22.69-1.04-34.04-1.56-1.61-.07-3.21-.15-4.82-.22l1.5,1.5c-1.88-15.74-1.05-31.87,3.5-47.11,3.72-12.47,9.69-25.05,18.43-34.8,4.82-5.37,10.52-9.78,16.82-13.28,1.69-.94.18-3.53-1.51-2.59h0Z"/>
      </g>
      <path d="M1207.4,683.1c3.11-.06,6.53.49,8.89,2.7s3.47,5.98,3.82,9.22c.69,6.42-2.06,13.7-8.91,15.34-1.88.45-1.08,3.34.8,2.89,8.3-1.99,12.01-10.82,11.06-18.68-.47-3.95-1.74-8.29-4.79-11.03s-7-3.51-10.87-3.44c-1.93.03-1.93,3.03,0,3h0Z"/>
      <path d="M1164.01,691.67c-2.98,4.97-2.05,11.57,2.25,15.47,2.25,2.05,5.03,3.34,7.73,4.68,3.31,1.63,6.61,3.25,9.92,4.88,1.73.85,3.25-1.74,1.51-2.59-2.83-1.39-5.67-2.79-8.5-4.18-2.51-1.23-5.13-2.37-7.42-4-4.1-2.92-5.55-8.34-2.9-12.74,1-1.66-1.6-3.17-2.59-1.51h0Z"/>
      <path d="M1135.68,708.26c-7.14,1.13-14.44,2.89-20.02,7.77-4.9,4.29-8.04,10.55-8.46,17.05-.41,6.4,2.14,12.88,6.6,17.45,5.25,5.38,12.38,6.69,19.56,7.45,16.23,1.71,32.64.3,48.62-2.8,8.14-1.58,16.19-3.61,24.16-5.92,3.87-1.12,7.72-2.3,11.55-3.56,3.74-1.23,7.49-2.62,10.91-4.59,5.7-3.28,10.64-9.31,7.97-16.16-1.28-3.28-3.15-6.43-5.06-9.37-1.77-2.72-3.78-5.3-6.01-7.65-1.22-1.28-2.5-2.49-3.83-3.66-1.44-1.27-3.57.84-2.12,2.12,4.76,4.19,8.6,9.04,11.69,14.58,1.54,2.76,3.67,5.99,3.01,9.3-.59,2.94-2.88,5.34-5.23,7.03-5.73,4.11-13.12,5.9-19.77,7.92-7.33,2.22-14.72,4.21-22.2,5.86-14.73,3.25-29.81,5.14-44.91,4.54-3.79-.15-7.58-.45-11.34-.93-3.49-.45-7.09-1.11-10.23-2.78-5.2-2.77-8.84-7.96-10.03-13.69-1.35-6.54,1-13.5,5.48-18.34,5.31-5.73,13.03-7.54,20.46-8.72,1.9-.3,1.09-3.19-.8-2.89h0Z"/>
      <path d="M1044.09,680.16c4.12,4.08,5.92,10.28,4.38,15.91s-5.84,9.74-11.17,11.32c-1.85.55-1.06,3.45.8,2.89,6.32-1.88,11.51-7.02,13.26-13.42,1.82-6.64-.29-14.01-5.16-18.83-1.37-1.36-3.5.76-2.12,2.12h0Z"/>
      <path d="M1005.51,675.73c-2.1-.59-4.21.29-5.58,1.94-1.59,1.93-1.86,4.34-1.32,6.73.57,2.55,1.94,4.92,3.07,7.25,1.26,2.61,2.52,5.21,3.78,7.82.84,1.74,3.43.22,2.59-1.51-1.91-3.94-3.96-7.84-5.71-11.85-.69-1.59-1.43-3.63-.79-5.36.47-1.27,1.72-2.52,3.16-2.12,1.86.52,2.66-2.37.8-2.89h0Z"/>
    </g>
    <path class="cls-4" d="M735.32,146.03c-50.89,20.78-118.11,48.91-172.46,71.34-12.92,5.35-25.41,10.53-38.09,15.78-17.89,7.12-29.95,12.18-32.45,32.11-1.08,8.91.08,17.66,3.04,26.78,2.86,8.76,6.84,17.61,10.47,26.35,22.1,51.7,60.51,144.84,78.92,186.2-14.48-39.73-35.4-95.8-51.31-139.07-6.51-17.61-12.78-34.61-19.19-51.94-3.24-9.17-8.07-20.62-9.67-28.15-2.52-11.21.97-21.04,8.54-29.17,5.32-5.97,13.46-11.65,21.23-15.71,54.32-27.55,144.1-67.84,200.97-94.53h0Z"/>
    <g>
      <path d="M314.12,627.81c12.49,81.42,16.78,193.25,101.05,234.46,30.87,16.05,74.2,20.17,108.3,9.17,21.5-7.2,38.94-15.48,55.72-25.83,11.95-7.44,20.24-14.57,17.98-13.05-83.78,49.16-175.53,45.04-214.21-15.74-50.78-79.79-46.66-165.31-42.86-165.52,4.2.45,13.15,3.72,17.54,4.18,3.66.1,9.48-1.81,9.44-5.22-.09-1.55-1.38-3.41-3.1-3.53-12.86-1.62-22.39-5.71-33.26-13.35-5.96-4.54-13.66-8.88-17.52-18.28.1.85.8,11.76.9,12.6v.1Z"/>
      <path d="M312.67,628.21c2.05,13.37,3.78,26.79,5.62,40.2,1.93,14.15,3.96,28.29,6.45,42.35s5.46,28.17,9.29,42,8.33,26.81,14.19,39.56c5.69,12.39,12.65,24.21,21.15,34.89,8.53,10.73,18.65,20.15,30.05,27.76,13.27,8.85,28.16,15.42,43.61,19.33,17.38,4.4,35.63,5.85,53.48,4.11,8.63-.84,17.21-2.42,25.52-4.94,9.27-2.81,18.36-6.45,27.21-10.36,16.33-7.22,32.25-16.03,46.32-27.07,1.03-.81,3.42-2.14,3.49-3.67.02-.52-.3-1.04-.74-1.3-1.28-.75-3.18.96-4.17,1.53-2.4,1.38-4.82,2.72-7.25,4.02-4.72,2.53-9.52,4.92-14.39,7.16-9.44,4.35-19.14,8.13-29.06,11.25-18.11,5.71-36.97,9.26-55.98,9.68-17.06.38-34.25-1.79-50.39-7.46-14.86-5.22-28.61-13.54-39.71-24.75-6.04-6.1-11-12.95-15.48-20.25-5.99-9.77-11.37-19.92-16.13-30.35-8.35-18.32-14.75-37.54-19.23-57.16-3.43-15.03-5.78-30.35-6.65-45.75-.29-5.22-.42-10.45-.24-15.67.06-1.89.17-3.78.35-5.66.04-.37.07-.73.12-1.1.02-.15.04-.3.06-.46.05-.43-.03.18.04-.3.09-.57.18-1.14.29-1.7.09-.43.21-.86.33-1.28.08-.28.17-.47.03-.13.04-.1.1-.28.19-.35-.25.2.01.15-.33.32.19-.09-.42.19-.25.1-.37.2-.5-.07-.13.07.17.06.39.06.57.1,1.9.34,3.78.87,5.64,1.38,2.13.59,4.25,1.21,6.39,1.76,1.69.43,3.51.96,5.27.92,3.45-.08,8.35-1.35,9.95-4.78.88-1.88.26-4.09-1.16-5.54-1.69-1.73-4.35-1.58-6.57-1.97-4.84-.85-9.6-2.19-14.12-4.12-4.71-2.01-9.15-4.61-13.37-7.49-3.48-2.37-6.99-4.86-10.17-7.62-3.44-2.99-6.33-6.53-8.11-10.76-.29-.7-.84-1.18-1.65-1.07-.67.09-1.38.73-1.3,1.47.47,4.34.32,8.78.97,13.1.29,1.9,3.18,1.09,2.89-.8-.02-.14.05.47.02.13-.01-.16-.03-.32-.04-.47-.04-.45-.07-.9-.1-1.35-.1-1.39-.19-2.78-.29-4.16-.15-2.14-.23-4.3-.46-6.44l-2.95.4c1.86,4.45,4.66,8.28,8.23,11.51,3.11,2.81,6.6,5.2,9.98,7.67,8.12,5.92,17.4,10.37,27.24,12.44,1.21.25,2.42.48,3.64.67,1.06.17,2.63.09,3.58.63,1.66.95,1.27,2.71-.01,3.67-1.49,1.11-3.52,1.67-5.35,1.85s-3.48-.29-5.18-.72c-4.06-1.02-8.06-2.44-12.19-3.18-1.5-.27-2.66-.36-3.41,1.1-1.08,2.1-1.16,4.87-1.36,7.16-.39,4.42-.43,8.88-.34,13.32.29,14.17,2.02,28.33,4.62,42.25,3.56,19.01,8.93,37.69,16.06,55.68,4.11,10.37,8.78,20.51,14.05,30.34,4.83,9,9.97,18,16.28,26.06,9.83,12.57,22.68,22.6,37.07,29.44,15.12,7.18,31.65,10.94,48.32,12.04,18.52,1.22,37.2-.81,55.23-5.07,20.13-4.75,39.57-12.33,57.89-21.92,2.31-1.21,4.61-2.45,6.88-3.73,1.21-.68,2.42-1.37,3.62-2.06.46-.27.99-.5,1.41-.83.59-.47.25.71-1.22-.15l-.74-1.3c0,.15.14-.91.39-.98-.03,0-.05.06-.07.08-.08.04-.17.17-.24.23-.3.26-.59.52-.9.77-.96.8-1.95,1.58-2.95,2.34-3.43,2.61-6.96,5.08-10.57,7.43-7.61,4.96-15.58,9.42-23.72,13.46-8.37,4.16-16.98,7.84-25.75,11.08-8.42,3.11-16.9,5.74-25.76,7.29-17.31,3.01-35.29,2.68-52.56-.47-16.28-2.97-31.81-8.66-46.14-16.96-11.76-6.82-22.33-15.52-31.36-25.68-8.83-9.93-16.12-21.15-22.14-32.97-6.21-12.19-11.07-25.02-15.05-38.1-4.12-13.53-7.31-27.33-9.98-41.21s-4.8-27.76-6.76-41.7-3.61-26.87-5.54-40.28c-.44-3.09-.9-6.18-1.37-9.27-.29-1.9-3.18-1.09-2.89.8Z"/>
    </g>
    <g>
      <g>
        <path class="cls-15" d="M304.99,844.06c1.93-7.96,3.86-15.91,5.79-23.87,1.28-5.26,2.56-10.55,4.55-15.59,4.6-11.68,12.86-21.71,22.66-29.55,9.8-7.85,21.12-13.62,32.78-18.28,3.42-1.37,7.08-2.67,10.71-2.06,4.48.74,8.08,4.33,9.97,8.45,1.9,4.12,2.35,8.74,2.62,13.27.16,2.67.18,5.6-1.47,7.7-1.17,1.49-2.99,2.29-4.75,3-6.84,2.74-13.99,4.9-20.22,8.82-11.79,7.42-19,20.33-23.79,33.41-.67,1.84-1.41,3.84-3.05,4.91-.88.58-1.93.83-2.96,1.04-11.53,2.44-24.08,2.67-33.8,9.32"/>
        <path d="M306.44,844.46c2.4-9.89,4.66-19.83,7.24-29.67,1.2-4.57,2.62-9.09,4.66-13.36,1.82-3.81,4.04-7.42,6.55-10.82,10.72-14.47,26.59-24.12,42.94-31.03,4.12-1.74,9.01-4.27,13.61-3.36,3.84.76,6.78,3.8,8.48,7.2,2.07,4.16,2.47,9.02,2.68,13.59.09,1.9.16,4.06-.87,5.74s-3.12,2.48-4.91,3.18c-8.49,3.36-17.19,6.09-24.39,11.92-6.31,5.12-11.13,11.92-14.83,19.1-1.88,3.65-3.5,7.43-4.93,11.27-.65,1.74-1.22,4.01-2.97,4.96s-4.18,1.09-6.12,1.43c-8.36,1.47-16.94,2.29-24.8,5.71-1.93.84-3.77,1.85-5.51,3.02-1.59,1.07-.09,3.67,1.51,2.59,7.48-5.05,16.56-6.33,25.28-7.72,2.25-.36,4.51-.73,6.75-1.16,2.11-.41,4.31-.81,5.87-2.41,1.4-1.44,2.06-3.4,2.74-5.25.76-2.05,1.57-4.08,2.45-6.08,3.45-7.79,7.94-15.28,14.19-21.16,3.28-3.08,7-5.55,11.05-7.51,4.49-2.17,9.23-3.76,13.88-5.57,1.95-.76,3.97-1.48,5.61-2.83s2.55-3.27,2.86-5.36c.33-2.23.14-4.5-.04-6.73-.19-2.39-.48-4.8-1.05-7.14-1.02-4.15-3.05-8.17-6.43-10.89-3.57-2.87-7.86-3.62-12.29-2.58-4.75,1.11-9.37,3.38-13.79,5.41s-8.65,4.2-12.78,6.65c-7.93,4.71-15.35,10.38-21.59,17.19s-11.01,14.29-14.12,22.75c-1.76,4.79-2.95,9.77-4.15,14.73-1.27,5.25-2.55,10.5-3.82,15.75l-1.85,7.64c-.46,1.88,2.44,2.68,2.89.8h0Z"/>
      </g>
      <g>
        <path class="cls-23" d="M312.47,840.49c-10.01,2.72-13.27,9.41-14.78,12.84s-1.82,7.26-1.88,11.01c-.07,4.28.45,9.13,3.83,11.75"/>
        <path d="M312.07,839.04c-5.73,1.6-10.73,4.92-13.88,10.03-3.31,5.38-4.22,11.76-3.82,18,.24,3.72,1.2,7.64,4.21,10.09,1.49,1.21,3.62-.9,2.12-2.12-3.06-2.49-3.42-6.65-3.4-10.33.03-4.02.42-8.01,2.16-11.69,2.69-5.67,7.35-9.39,13.4-11.08,1.86-.52,1.07-3.41-.8-2.89h0Z"/>
      </g>
      <g>
        <path class="cls-23" d="M323.02,865.94c-3.53.81-7.02,1.76-10.47,2.86-4.36,1.38-8.82,3.1-11.96,6.43-2.18,2.31-3.57,5.25-4.72,8.21-5.34,13.73-6.2,29.16-2.43,43.41,1.26,4.74,3.04,9.41,5.93,13.38,8.08,11.11,20.94,15.4,38.82,9.71"/>
        <path d="M322.62,864.49c-5.01,1.16-10.11,2.47-14.87,4.43-4.32,1.77-8.07,4.32-10.57,8.34s-4.15,9.19-5.35,13.94-1.96,10.02-2.15,15.1c-.63,17.06,4.25,38.19,21.65,45.37,8.7,3.59,18.51,2.47,27.27-.29,1.84-.58,1.05-3.47-.8-2.89-7.41,2.33-15.47,3.51-23.05,1.23-6.47-1.95-11.9-6.49-15.4-12.23-2.43-3.99-3.9-8.48-4.95-13.01s-1.68-9.51-1.76-14.34c-.16-9.45,1.52-19.18,5.32-27.86.99-2.28,2.21-4.5,3.98-6.28s3.83-2.96,6.04-3.94c4.88-2.17,10.26-3.47,15.45-4.67,1.88-.44,1.08-3.33-.8-2.89h0Z"/>
      </g>
      <g>
        <path class="cls-23" d="M327.63,931.41c2.06,8.4,7.01,16.07,13.82,21.4,4.31,3.37,9.58,5.88,15.04,5.64,7.77-.34,14.8-4.63,15.67-12.37"/>
        <path d="M326.19,931.8c2.29,9.14,7.75,17.35,15.35,22.93,3.97,2.92,8.71,5.05,13.7,5.21,4,.13,8.26-.91,11.64-3.08,3.86-2.47,6.22-6.27,6.78-10.8.24-1.91-2.76-1.89-3,0-.91,7.26-8.32,10.93-15.01,10.88-8.51-.06-16.19-6.66-20.82-13.3-2.68-3.84-4.62-8.11-5.75-12.65-.47-1.87-3.36-1.08-2.89.8h0Z"/>
      </g>
      <g>
        <path class="cls-23" d="M340.35,860.22c10.43,1.33,21.03,2.01,31.06,5.17,10.02,3.16,19.66,9.24,24.43,18.6s3.27,22.3-5.21,28.51"/>
        <path d="M340.35,861.72c13.32,1.69,27.39,2.31,39.47,8.81,9.75,5.24,17.7,14.42,17.18,26.03-.25,5.58-2.56,11.24-7.13,14.65-1.53,1.14-.03,3.75,1.51,2.59,9.34-6.98,10.82-20.56,5.75-30.56-5.9-11.63-18.58-17.94-30.76-20.77-8.55-1.99-17.33-2.65-26.02-3.75-1.91-.24-1.89,2.76,0,3h0Z"/>
      </g>
      <g>
        <path class="cls-23" d="M337.12,835.55c2.15-.15,4.34-.27,6.45.18,5.35,1.13,11.26,5.91,13.24,11s2.21,9.57,2.43,15.04"/>
        <path d="M337.12,837.05c3.24-.23,6.33-.19,9.31,1.24,2.64,1.27,5.02,3.13,6.87,5.42,3.99,4.94,4.2,12.01,4.44,18.06.08,1.92,3.08,1.93,3,0-.28-6.95-.72-14.57-5.32-20.18-2.04-2.49-4.72-4.6-7.64-5.97-3.44-1.62-6.91-1.83-10.66-1.57-1.92.13-1.93,3.13,0,3h0Z"/>
      </g>
      <g>
        <path class="cls-23" d="M356.19,926.82c2.39,4.37,4.82,8.79,8.22,12.43,3.4,3.64,7.94,6.47,12.91,6.8,5.74.38,11.55-2.89,14.21-7.99,2.64-5.08,2.14-11.24.55-16.74-2.73-9.43-8.34-17.73-13.86-25.85"/>
        <path d="M354.89,927.57c3.19,5.82,6.53,11.75,11.92,15.83,4.84,3.67,11.17,5.36,17.01,3.16s9.67-6.88,10.71-12.8c1.15-6.5-.72-13.11-3.26-19.06-3.05-7.14-7.42-13.6-11.77-19.99-1.08-1.59-3.68-.09-2.59,1.51,3.52,5.17,7.05,10.37,9.89,15.96,2.66,5.24,4.93,11.08,5.07,17.03.14,5.64-2.14,10.91-7.22,13.69s-10.32,1.87-14.84-1.04c-5.76-3.7-9.14-9.96-12.34-15.8-.93-1.69-3.52-.18-2.59,1.51h0Z"/>
      </g>
    </g>
    <g>
      <path d="M295.95,863.21c.24,3.66-.82,13.27,5.47,9.79,5.85-2.9,9.36-3.95,15.58-6.09,1.74-.58,6.35-.81,3.56-.81-6.09-.13-12.28.5-18.32-.11-3.51-.55-4.69-4.71-5.96-7.7"/>
      <path d="M294.45,863.21c.12,1.97,0,3.95.21,5.91s.59,4.31,2.34,5.49c2.3,1.56,4.86-.19,6.99-1.19,3.16-1.49,6.43-2.68,9.74-3.81,1.65-.57,3.31-1.26,5.03-1.57.97-.17,2.15-.12,3.08-.45.68-.25,1.03-.74,1.1-1.45h0c.07-.65-.51-1.3-1.1-1.46-.7-.18-1.52-.09-2.23-.1-1.53-.01-3.06.01-4.59.05-2.98.07-5.96.18-8.94.09-2.13-.06-4.42.15-5.86-1.68-1.18-1.5-1.76-3.43-2.48-5.16-.31-.75-.99-1.27-1.85-1.05-.71.19-1.36,1.1-1.05,1.85.81,1.94,1.47,4.02,2.7,5.76,1.43,2.02,3.22,2.93,5.66,3.13,3.21.26,6.43.2,9.64.12,1.69-.04,3.38-.09,5.08-.11.8,0,1.61,0,2.41.01.24,0,.48.02.72,0,.18,0,.54.11,0-.03l-1.1-1.45h0c.37-.47.73-.95,1.1-1.44-.73.27-2.08.28-3.08.45-1.85.33-3.63,1.09-5.41,1.7-3.84,1.32-7.62,2.77-11.27,4.56-.61.3-1.24.72-1.93.82-.37.05-.51.02-.71-.11.22.14-.27-.31-.15-.14-.14-.18-.26-.41-.35-.62-.17-.4-.28-.94-.37-1.39-.42-2.22-.19-4.51-.33-6.75-.11-1.92-3.12-1.93-3,0h0Z"/>
    </g>
    <g>
      <path d="M729.53,582.55c-.12-.63-7.58-1.58-8.26-1.86-6.75-2.88-9.63-4.35-14.42-10.31-1.42-1.57-.91,1.85-1.01,3.57.03,2.63.01,5.28.06,7.9.06,1.02.13,2.16.97,2.82,1.06.85,22.65-2.12,22.65-2.12"/>
      <path d="M730.82,581.79c-.34-.8-1.5-1.05-2.24-1.23-1.13-.28-2.29-.47-3.44-.67-1.02-.18-2.06-.3-3.06-.54-1.21-.3-2.39-.96-3.52-1.49-2.6-1.21-5.03-2.64-7.11-4.62-1.24-1.18-2.29-2.5-3.42-3.77-.93-1.05-2.55-1.47-3.35,0-.59,1.08-.33,2.59-.33,3.77,0,2.1,0,4.2.02,6.3.02,2.45-.21,6.51,3.07,6.77,1.53.12,3.12-.07,4.64-.2,2.33-.2,4.66-.46,6.98-.73,3.62-.42,7.24-.88,10.85-1.38.81-.11,1.23-1.14,1.05-1.85-.23-.87-1.05-1.16-1.85-1.05-.19.03-.38.05-.57.08-.36.05.27-.04-.02,0-.11.02-.23.03-.34.05-.32.04-.63.08-.95.13-1.79.24-3.57.46-5.36.68-4,.49-8.02,1-12.05,1.23-.63.04-1.27.07-1.9.06-.2,0-.41-.01-.61-.03.12.01.37,0,.14.01-.29,0,.26.04.25.11.03-.19-.25-.81-.27-1.04-.05-.4-.04-.81-.05-1.21-.02-1.08-.02-2.17-.03-3.25,0-1.73.02-3.46-.02-5.19,0-.45.16-1.37,0-1.78.02.04-.29-.66.01-.08.04.08-1.72.19-1.74.42-.01.16.79.93.9,1.06.95,1.13,1.94,2.23,3.03,3.24,1.87,1.74,3.99,3.15,6.27,4.29s4.52,2.23,7.02,2.67c1.23.21,2.46.41,3.68.66.51.1,1.03.21,1.53.34.16.04.37.15.53.16s-.05-.09-.03-.02-.3-.31-.32-.35c.32.75,1.41.9,2.05.54.78-.44.85-1.31.54-2.05h0Z"/>
    </g>
    <g>
      <path d="M744.5,584.89c5.69,2.19,13.09,4.87,18.79,7.06,1.51.58,6.37,3.84,8.21-1.79,1.52-4.65-3.33-3.41-5.08-3.22-4.62.5-17.42-.92-21.93-2.06"/>
      <path d="M744.11,586.33c5.76,2.22,11.56,4.31,17.33,6.51,1.05.4,1.23.46,2.02.83s1.6.74,2.45.97c1.8.49,3.7.33,5.15-.94,1.52-1.34,2.64-4.02,2.13-6.04-.45-1.79-2.17-2.47-3.85-2.51-1.56-.04-2.71.32-4.1.37-2.06.08-4.12-.04-6.17-.18-4.71-.33-9.56-.76-14.15-1.9-1.87-.47-2.67,2.43-.8,2.89,3.58.89,7.32,1.29,10.98,1.66,3.66.37,7.48.81,11.16.46,1.16-.11,2.31-.45,3.47-.29.07,0,.53.16.47.12.16.09.07-.07.11.17.12.8-.36,1.87-.8,2.51-.83,1.2-2.07,1.04-3.31.62-1.34-.46-2.62-1.13-3.95-1.64-5.77-2.2-11.57-4.29-17.33-6.51-1.8-.69-2.58,2.21-.8,2.89h0Z"/>
    </g>
    <g>
      <path d="M839.85,344.56c-1.84,1.04-3.95,2.57-3.72,4.68.21,1.96.97,6.1,2.33,7.52,5.21,5.42,2.92,8.22,7.65,17.79.95-12.7-1.38-26.43,5.03-37.43"/>
      <path d="M839.1,343.26c-1.53.89-3.14,1.97-3.97,3.59-.72,1.41-.48,2.86-.22,4.35.27,1.62.66,3.23,1.32,4.74.59,1.34,1.61,2.22,2.48,3.37,1.42,1.88,2.03,4.02,2.59,6.27.85,3.37,1.99,6.59,3.52,9.72.7,1.44,2.7.6,2.8-.76.87-12.15-1.5-25.62,4.83-36.67.96-1.68-1.63-3.19-2.59-1.51-6.64,11.61-4.32,25.44-5.24,38.19l2.8-.76c-1.36-2.77-2.37-5.64-3.12-8.63-.53-2.09-1.05-4.19-2.15-6.08-.63-1.09-1.42-2.09-2.27-3.02s-1.23-2.04-1.56-3.26-.69-2.51-.69-3.74c0-1.56,1.81-2.53,2.99-3.21,1.67-.97.16-3.56-1.51-2.59h0Z"/>
    </g>
    <g>
      <path d="M1117.27,245.79c.45-8.3.86-16.59.28-24.8-.56-9.02-2.76-18.8-4.8-26.8-.52-2.49-2.74-9.55.67-6.62,8.27,9,19.13,48.71,19.88,60.97.94,9.67-8.43-7.44-16.12-3.54"/>
      <path d="M1118.77,245.79c.44-8.26.83-16.54.28-24.8-.5-7.53-1.91-14.96-3.64-22.29-.6-2.55-1.27-5.09-1.86-7.65-.18-.79-.38-1.6-.46-2.41-.02-.19-.03-.39-.03-.58,0-.16-.1-.39,0-.23l.03-.13c-.11.39-.43.62-.94.67-.07.19-.3-.29.12.18,2.09,2.38,3.69,5.49,5.07,8.49,4.15,8.97,7.09,18.57,9.67,28.1,1.26,4.64,2.41,9.31,3.36,14.02.66,3.28,1.26,6.53,1.46,9.85.03.44.01.86,0,1.3,0-.36-.03.13-.04.12.04.11-.04-.03.14-.16-.22.16.35-.19.35-.19.22-.06.32-.01.32-.01-.02.06-.45-.24-.02.02-.14-.08-.29-.14-.43-.23-1.41-.87-2.61-2-3.97-3.05-3.34-2.59-7.51-5.15-11.76-3.09-1.74.84-.22,3.43,1.51,2.59,3.22-1.56,6.98,1.68,9.31,3.57,1.62,1.31,5.75,5.31,7.3,1.74.61-1.4.27-3.21.11-4.68-.2-1.87-.49-3.72-.82-5.57-.84-4.72-1.94-9.4-3.14-14.04-2.68-10.36-5.84-20.71-10.18-30.5-1.53-3.46-3.22-7.01-5.68-9.91-1.2-1.41-3.89-2.46-4.63,0-.56,1.85.27,4.21.7,6.01,1.68,6.89,3.37,13.78,4.38,20.81,1.22,8.48,1.18,17.06.81,25.6-.09,2.16-.21,4.31-.32,6.47-.1,1.93,2.9,1.92,3,0h0Z"/>
    </g>
    <g>
      <path d="M1167.34,258.12c4.43-9.58,11.83-24.46,18.05-32.81,1.9-2.92,16.76-18.55,13.48-8.52-1.24,3.81-16.27,12.49-22.71,41.33"/>
      <path d="M1168.64,258.88c4.33-9.36,8.92-18.68,14.41-27.42,3.33-5.32,6.89-9.67,11.77-13.91.9-.78,1.83-1.56,2.87-2.16.56-.33.5-.15.91-.41.2-.13-.08,0-.08,0-.06-.08.69.27-.12-.03-.02,0-.48-.42-.51-.44-.01-.01-.02-.12-.03.08,0,.34,0,.2-.04.41-.06.32-.15.64-.24.96-.05.16-.1.32-.15.47-.1.3.16-.33.04-.09-.11.22-.24.42-.37.63-.07.11-.16.22-.24.33.28-.37-.14.16-.21.25-1.26,1.51-2.67,2.89-3.98,4.35-2.02,2.23-3.92,4.57-5.66,7.02-6.1,8.6-9.98,18.57-12.29,28.81-.42,1.88,2.47,2.68,2.89.8,2.2-9.72,5.8-19.12,11.47-27.36,1.75-2.54,3.69-4.93,5.76-7.22,1.37-1.51,2.84-2.94,4.12-4.52,1.21-1.49,2.2-3.56,1.82-5.53-.57-2.89-3.64-1.79-5.3-.66-2.58,1.75-4.86,4.01-7.01,6.25-1.86,1.93-3.57,3.94-5.12,6.12-6.98,9.78-12.27,20.9-17.3,31.78-.81,1.74,1.78,3.27,2.59,1.51h0Z"/>
    </g>
    <g>
      <path d="M1173.93,262.26c4.43,9.58,11.83,24.46,18.05,32.81,1.9,2.92,16.76,18.55,13.48,8.52-1.24-3.81-16.27-12.49-22.71-41.33"/>
      <path d="M1172.63,263.02c4.55,9.84,9.38,19.69,15.28,28.8,3.42,5.28,7.56,10.15,12.49,14.09,1.45,1.16,4.39,3.68,6.27,1.91,1.5-1.41.59-4.41-.39-5.89s-2.39-2.83-3.63-4.16c-1.91-2.05-3.77-4.17-5.45-6.41-6.54-8.73-10.62-18.91-13.01-29.5-.43-1.88-3.32-1.09-2.89.8,2.12,9.38,5.54,18.55,10.81,26.64,3.01,4.62,6.66,8.6,10.35,12.67.26.29.52.58.77.88.11.13.22.26.32.4-.23-.29.01.01.09.14.14.22.28.43.4.67-.02-.04-.09-.35.04.17.09.36.22.72.29,1.09.06.31.04.13.06.5.02.29.09.08.03,0,0,0-.03.17-.04.18.19-.16.21-.36.62-.57.07-.03.18.03.13,0-.42-.26-.28-.05-.84-.37-.52-.3-1.01-.64-1.48-1-2.33-1.78-4.43-3.92-6.43-6.06-.87-.93-1.73-1.88-2.54-2.87-.08-.09-.37-.47-.3-.37.09.12-.15-.21-.2-.28-.6-.85-1.22-1.69-1.8-2.55-6.45-9.5-11.53-20-16.35-30.4-.81-1.75-3.4-.23-2.59,1.51h0Z"/>
    </g>
    <g>
      <path d="M1212.52,253.98c8.48-11.86,17.17-23.64,27.49-33.98,5.9-6.71,40.86-30.68,24.54-11.66-20.05,23.38-16.38,36.33-26.37,44.58-7.53,6.41-16.59-2.11-25.84,1.16"/>
      <path d="M1213.81,254.73c5.2-7.26,10.46-14.49,16.15-21.37,4.14-5.01,8.44-10.1,13.29-14.44,2.98-2.66,6.2-5.07,9.45-7.38,3.45-2.46,6.98-4.84,10.68-6.89.71-.39,1.43-.78,2.17-1.13s.82-.41,1.59-.66c.22-.07.45-.12.68-.19.48-.14-.21.04.23-.03.11-.02-.07.03-.26-.11-.26-.19-.38-.41-.45-.83.06.33.12-.28-.01.14-.03.08-.05.17-.08.25-.04.11.11-.19-.09.18-.35.66-.75,1.29-1.19,1.9-1.87,2.62-4.12,4.98-6.1,7.52-4.34,5.58-8.13,11.56-11.1,17.99-1.99,4.31-3.49,8.8-5.38,13.15-1.54,3.55-3.54,7.04-6.73,9.37-2.72,1.99-6.01,1.86-9.17,1.27-3.4-.64-6.77-1.64-10.26-1.67-1.8-.01-3.6.25-5.3.83-1.82.61-1.04,3.51.8,2.89,7.13-2.4,14.04,2.48,21.21,1.1,4.88-.94,8.54-5.34,10.75-9.53s3.6-8.71,5.42-13.03c2.67-6.35,6.09-12.34,10.14-17.91,2.31-3.17,4.93-6.07,7.33-9.16.99-1.28,2.19-2.71,2.63-4.31.35-1.25-.09-2.6-1.45-2.96-1.12-.29-2.36.19-3.38.61-3.67,1.51-7.05,3.75-10.34,5.95-3.89,2.6-7.69,5.37-11.33,8.33-4.06,3.3-7.61,7.14-11.08,11.03-6.21,6.98-11.88,14.42-17.37,21.97-1.35,1.86-2.7,3.73-4.04,5.6-1.13,1.57,1.48,3.07,2.59,1.51h0Z"/>
    </g>
    <g>
      <path d="M1062.57,171.97c7.56,23.28,18.36,46.5,32.91,66.1,2.25,3.03,4.3,5.57,6.01,7.37,1.76,1.71,2.65,2.73,4.31,3.08,1.98.2,1.93-3.69-.38-10.23-2.2-6.24-5.28-12.29-8.42-18.23-6.32-11.43-14-28.67-20.38-37.67-2.85-4.52-7.53-7.52-12.63-8.25"/>
      <path d="M1061.12,172.37c4.18,12.82,9.21,25.38,15.29,37.42s12.94,23.38,21.34,33.65c1.62,1.98,8.06,10.08,10.54,5.04.88-1.79.34-4.19-.07-6.02-.73-3.25-1.96-6.38-3.25-9.44-2.59-6.14-5.79-11.96-8.88-17.85-2.75-5.24-5.36-10.55-8.05-15.81s-5.63-10.99-9.01-16.13c-1.68-2.56-3.42-4.95-5.88-6.82s-5.57-3.24-8.75-3.73c-1.89-.29-2.7,2.6-.8,2.89,2.63.41,5.08,1.35,7.27,2.87s3.68,3.52,5.14,5.67c2.73,4.04,5.05,8.36,7.32,12.67,2.63,5.01,5.13,10.07,7.69,15.11s5.27,9.88,7.77,14.9c1.51,3.02,2.94,6.09,4.18,9.23,1.09,2.77,2.16,5.64,2.61,8.6.11.71.2,1.54.09,2.22-.01.08-.09.25-.09.34,0-.02-.05-.05.05-.04.29.04.04-.16.02-.01.06-.34.62.18-.09-.23-2.11-1.22-3.76-3.25-5.31-5.11-7.91-9.52-14.44-20.34-20.13-31.31-6.48-12.48-11.77-25.55-16.12-38.91-.6-1.83-3.49-1.05-2.89.8h0Z"/>
    </g>
    <g>
      <path d="M1104.22,267.41c-9.04,17.76-31.53,25.34-29.57,29.37,5.49,2.6,53.94-27.23,51.24-32.82"/>
      <path d="M1102.92,266.65c-4.99,9.68-13.77,16.15-22.53,22.18-1.52,1.05-3.04,2.1-4.48,3.25-.92.74-1.89,1.57-2.45,2.63-.66,1.23-.62,3.01.9,3.55.84.29,1.81.16,2.65.01,2.59-.46,5.1-1.62,7.48-2.7,3.52-1.6,6.94-3.42,10.31-5.31,7.46-4.2,14.76-8.8,21.62-13.92,2.71-2.02,5.41-4.11,7.79-6.51,1.35-1.36,3.22-3.21,3.28-5.27.02-.5-.11-.92-.31-1.37-.79-1.76-3.38-.23-2.59,1.51-.1-.22-.15-.19-.1-.33-.14.33.01.06.01.04-.02.14-.08.28-.13.42.16-.48-.07.12-.15.26-.19.33-.41.65-.64.95.22-.29-.23.27-.3.36-.21.24-.42.48-.64.71-1.99,2.13-4.29,3.99-6.6,5.76-6.35,4.87-13.14,9.21-20.06,13.24-5.67,3.3-11.63,6.81-17.82,8.76-.47.15-.95.29-1.44.39-.21.05-.42.09-.63.12-.35.06.35-.03.02,0-.12.01-.23.03-.35.03-.13,0-.26,0-.39,0-.29,0,.01.07.12.03-.02,0-.17-.02-.19-.04-.49-.53.95,1.4.68.67.08.21-.11.42.06.11.15-.28-.17.32-.01.03.05-.08.09-.18.15-.25.21-.27-.09.04.25-.32.4-.42.81-.81,1.26-1.18,1.2-1,2.57-1.92,3.91-2.85,9.26-6.39,18.62-13.21,23.9-23.46.88-1.71-1.7-3.23-2.59-1.51h0Z"/>
    </g>
    <g>
      <path d="M1133.3,273.66c3.6,5.15,7.08,10.68,9.59,15.86.84,1.66,1.59,3.14,2.27,4.33.89,1.31,1.12,2.38,2.62,3.08,1.24.09,1.46-2.01,1.73-2.51,1.02-3.31,2.88-17.07,1.42-20.76-1.28-4.25-8.51,2.59-16.54.58"/>
      <path d="M1132,274.42c2.1,3.01,4.12,6.07,5.99,9.22s3.34,6.21,4.98,9.34c.98,1.86,2.85,6.22,5.62,5.34,1.16-.37,1.7-1.5,2.05-2.57.18-.55.18-.57.32-.99.1-.29.16-.6.23-.9.99-4.22,1.46-8.64,1.69-12.96.11-2.05.15-4.13-.16-6.16-.24-1.59-.85-3.31-2.54-3.83-2.04-.63-4.42.45-6.35,1.04-2.96.9-5.99,1.56-9.06.84-1.88-.44-2.68,2.45-.8,2.89,2.61.61,5.25.49,7.86-.08,2.01-.44,3.92-1.2,5.91-1.68.46-.11,1.25-.17,1.42-.18.15,0,.18.06.17.03.09.18.19.4.27.68.4,1.39.37,2.94.35,4.42-.06,3.99-.51,8.02-1.2,11.95-.12.69-.25,1.39-.41,2.07-.2.9-.25.94-.5,1.73-.05.17-.38.79-.35.92l-.03.04c.79.04.96-.05.51-.26-.07-.13-.33-.31-.42-.42-.79-1.01-1.4-2.31-1.99-3.44-1.64-3.13-3.18-6.3-4.98-9.34s-3.89-6.22-5.99-9.22c-1.1-1.57-3.7-.07-2.59,1.51h0Z"/>
    </g>
    <g>
      <path d="M1209.3,279.13c25.23,16.93,33.4,28.44,45.16,55.15.95,1.71,4.77,10.87,5.96,5.43,1.15-14.09-15.28-55.71-25.49-67.48-7.92-9.45-19.43-.69-31.09-2.68"/>
      <path d="M1208.54,280.43c11.52,7.74,22.49,16.42,30.48,27.91,3.82,5.48,6.99,11.39,9.88,17.4,1.56,3.24,2.91,6.6,4.52,9.81,1.05,2.08,1.97,4.34,3.53,6.09,1.79,2.02,4.19,1.34,4.84-1.26.49-1.97.13-4.34-.12-6.32-.72-5.73-2.23-11.35-3.94-16.85-3.91-12.57-8.94-25.06-15.39-36.55-1.25-2.23-2.57-4.42-4.05-6.51-1.67-2.35-3.51-4.7-6.06-6.13-6.75-3.81-14.79-.39-21.89.23-2.03.18-4.08.2-6.1-.13-1.89-.3-2.7,2.59-.8,2.89,3.96.64,7.86.24,11.79-.43,3.51-.6,7.07-1.46,10.66-1.28s6.13,1.78,8.33,4.42c1.34,1.61,2.5,3.39,3.6,5.17,6.47,10.48,11.27,22.15,15.27,33.77,1.94,5.65,3.69,11.4,4.88,17.25.44,2.19.81,4.4.95,6.64.06.91.14,1.88.03,2.78-.04.28-.18.8-.19.79-.09-.08,1.21-.31.71-.16.03,0,.04.05-.08-.1-1.35-1.67-2.27-3.59-3.22-5.52-1.46-2.95-2.72-6.01-4.13-8.98-2.79-5.87-5.81-11.65-9.42-17.06-7.28-10.92-16.99-19.52-27.64-27.06-1.62-1.15-3.26-2.27-4.91-3.38s-3.11,1.52-1.51,2.59h0Z"/>
    </g>
    <g>
      <path d="M975.55,465.44c-.88,15-1.73,30.25,1.7,44.87,6.01,25.6,24.87,46.83,47.31,60.53,22.44,13.7,61.71,27.02,87.91,29.33,53.74,4.73,99.53,6.24,146.72-21.21,17.05-9.92,37.21-20.24,36.41-39.95-.08-2.02-5.44-7.58-7.03-8.83-3.11-2.44-7.4.74-10.12,3.61-33.98,35.71-84.5,51.98-133.75,54.03-39.54,1.64-80.47-5.49-113.7-26.99-33.23-21.5-56.11-55.81-55.44-95.38"/>
      <path d="M974.05,465.44c-.95,16.21-1.85,32.81,2.62,48.62,3.63,12.87,10.51,24.62,19.24,34.7,8.63,9.97,19.12,18.36,30.53,24.94s23.44,11.6,35.71,15.96c12.66,4.49,25.68,8.21,38.93,10.5,6.4,1.11,12.85,1.66,19.32,2.2,7.51.62,15.02,1.16,22.54,1.53,14.17.7,28.4.79,42.55-.47,13.93-1.25,27.74-3.81,41.05-8.14,6.88-2.24,13.62-4.93,20.17-8.03s12.57-6.58,18.72-10.15c10-5.8,21-12.1,27.34-22.13,2.92-4.63,4.81-10.48,4.32-16.01-.19-2.17-2.04-4.13-3.38-5.7s-2.96-3.53-4.82-4.65c-2.82-1.7-6.14-.29-8.53,1.49-2.7,2.02-4.89,4.67-7.31,7.01-4.92,4.75-10.18,9.16-15.71,13.18-11.12,8.09-23.29,14.74-36.01,19.95-12.81,5.25-26.17,9.12-39.74,11.78-13.77,2.7-27.78,4.14-41.81,4.46-14.87.34-29.8-.56-44.46-3.07-14.62-2.5-29.05-6.56-42.62-12.58-12.79-5.67-24.88-13.04-35.52-22.14-9.76-8.34-18.33-18.09-25.03-29.06-6.63-10.86-11.34-22.85-13.6-35.39-1.12-6.2-1.59-12.5-1.49-18.79.03-1.93-2.97-1.93-3,0-.19,12.73,2.02,25.46,6.53,37.37s11,22.67,19.03,32.36,18.01,18.52,28.71,25.69c12.05,8.07,25.3,14.27,39.07,18.77,14.01,4.58,28.58,7.38,43.24,8.8,14.41,1.4,28.96,1.44,43.4.31,13.7-1.07,27.33-3.23,40.65-6.62s26.18-7.97,38.47-13.93c12.18-5.9,23.68-13.19,34.08-21.87,2.58-2.15,5.08-4.39,7.51-6.71s4.6-5.07,7.29-7.07c1.14-.85,2.62-1.8,4.1-1.74,1.06.04,1.75.72,2.47,1.4,1.7,1.62,3.38,3.38,4.69,5.33.66.99.82,1.38.83,2.32.01,1.41-.07,2.83-.31,4.22-.44,2.61-1.3,5.12-2.54,7.46-2.61,4.91-6.64,8.89-10.97,12.32-4.73,3.75-9.95,6.87-15.15,9.9-5.99,3.49-11.97,6.99-18.2,10.02-12.73,6.21-26.24,10.72-40.12,13.53-13.52,2.75-27.31,3.87-41.09,4.03-14.55.17-29.09-.7-43.59-1.87-6.49-.52-12.98-1.01-19.4-2.08s-12.61-2.48-18.82-4.13c-13.16-3.5-26.1-7.97-38.57-13.46-11.48-5.05-22.57-11.04-32.4-18.89-10.33-8.25-19.37-18.22-25.88-29.76-3.23-5.71-5.8-11.77-7.57-18.09-2.15-7.69-3.01-15.65-3.2-23.62s.27-16.02.74-24.01c.11-1.93-2.89-1.92-3,0h0Z"/>
    </g>
    <g>
      <path d="M741.55,607.56c-9.73,3.11-20.36,3.36-30.23.71-1.09-.29-2.28-.71-2.79-1.71-.38-.75-.29-1.64-.18-2.48.36-2.82.36-4.27.72-7.09.88.19,1.48-.09,1.79.76.69,1.91,2.42,3.22,4.12,4.32,6,3.87,13.17,6.46,20.23,5.42"/>
      <path d="M741.15,606.11c-6.88,2.16-14.11,2.92-21.29,2.21-1.76-.17-3.52-.45-5.25-.81-1.28-.27-3.4-.42-4.43-1.3-.63-.53-.41-1.41-.33-2.13.09-.82.19-1.64.27-2.47.14-1.54.27-3.09.46-4.62l-1.9,1.45c.28.05.58.06.86.12.41.09.06,0,.02-.06.32.44.49,1.02.82,1.48.68.94,1.51,1.7,2.43,2.4,2.14,1.62,4.57,2.94,7.02,4.02,5.01,2.21,10.33,3.28,15.79,2.53.81-.11,1.23-1.14,1.05-1.85-.23-.87-1.05-1.16-1.85-1.05-5.18.71-10.46-.68-15.07-2.98-2.12-1.06-4.43-2.25-6.14-3.91-.8-.78-1.07-1.72-1.69-2.58s-1.47-.86-2.44-1.03c-1.05-.17-1.77.41-1.9,1.45-.22,1.79-.35,3.59-.53,5.38s-.66,3.64.37,5.23c.91,1.41,2.65,1.9,4.18,2.29,2,.51,4.02.89,6.06,1.17,8.14,1.11,16.46.41,24.3-2.05,1.84-.58,1.05-3.47-.8-2.89h0Z"/>
    </g>
    <g>
      <path class="cls-23" d="M725.45,489.54c-11.32-34.66,14.45-37.88,31.73-40.94,3.5-.62,7.07-.8,10.63-.86,3.66-.07,7.35-.02,10.96.6,8.9,1.53,17.13,6.64,22.44,13.95,5.31,7.3,7.63,16.71,6.33,25.65"/>
      <path d="M726.89,489.14c-2.42-7.48-4.42-16.58-.86-24.05,2.53-5.31,7.49-8.64,12.85-10.67,5.72-2.17,11.79-3.16,17.79-4.21s12.58-1.32,18.78-.79c5.57.48,10.91,2.31,15.61,5.33,10.83,6.98,16.8,20.01,15.02,32.79-.26,1.89,2.63,2.7,2.89.8,1.69-12.14-2.65-24.68-11.93-32.8-4.27-3.73-9.38-6.51-14.86-7.98-6.49-1.73-13.55-1.59-20.2-1.06-4.13.33-8.25,1.14-12.32,1.93-3.2.62-6.4,1.35-9.5,2.36-6.08,1.99-12.01,5.18-15.56,10.7-5.45,8.46-3.51,19.46-.6,28.45.59,1.83,3.49,1.05,2.89-.8h0Z"/>
    </g>
    <g>
      <path class="cls-23" d="M732.14,509.49c-4.12-6.24-8.2-17.24-4.85-23.93,2.36-4.7,6.89-7.95,11.6-10.29,14.21-7.06,31.31-7.27,46.3-2.09,10.99,3.8,21.56,11.09,25.59,22"/>
      <path d="M733.43,508.73c-1.94-2.97-3.49-6.21-4.55-9.6s-1.8-6.99-1.08-10.44c1.58-7.58,10.35-11.93,16.93-14.31,15.34-5.54,33.48-4.06,47.85,3.64,7.25,3.89,13.79,9.7,16.75,17.55.67,1.79,3.58,1.01,2.89-.8-6.02-15.98-23.77-23.99-39.66-26.11-8.95-1.19-18.2-.57-26.82,2.2-7.66,2.47-16.75,6.8-20.09,14.68-1.67,3.94-1.22,8.49-.19,12.53,1.1,4.29,2.96,8.45,5.38,12.15,1.05,1.61,3.65.11,2.59-1.51h0Z"/>
    </g>
    <g>
      <path class="cls-23" d="M770.19,532.39l-19.84-.31c-3.72-.06-7.49-.12-11.05-1.2s-6.94-3.31-8.53-6.66c-1.52-3.19-1.24-7.03.13-10.29,2-4.78,6.14-8.43,10.77-10.74,4.64-2.31,9.77-3.41,14.89-4.24,9.3-1.51,19.08-2.16,27.96.99,8.88,3.16,16.67,10.92,17.35,20.32"/>
      <path d="M770.19,530.89c-5.13-.08-10.25-.16-15.38-.24-4.78-.07-9.79.22-14.44-1.02-3.65-.97-7.37-3.22-8.63-6.98-1.38-4.12.2-8.66,2.78-11.95,5.6-7.13,15.06-9.18,23.55-10.48,9-1.39,18.81-1.92,27.39,1.69,7.49,3.16,14.2,9.94,14.89,18.36.16,1.91,3.16,1.93,3,0-.7-8.46-6.37-15.52-13.61-19.58-8.8-4.93-19.37-5.08-29.12-3.83s-20.15,3.1-27.08,10.41c-3.17,3.34-5.4,7.79-5.3,12.47s2.64,8.46,6.54,10.8c4.82,2.89,10.61,2.97,16.06,3.06,6.45.1,12.9.2,19.35.3,1.93.03,1.93-2.97,0-3h0Z"/>
    </g>
    <g>
      <g>
        <path class="cls-27" d="M1326.69,573.67c-.58-8.17-1.16-16.33-1.74-24.5-.38-5.4-.77-10.83-1.88-16.13-2.59-12.29-9.06-23.55-17.42-32.92-8.36-9.37-18.55-16.95-29.27-23.49-3.15-1.92-6.54-3.81-10.22-3.82-4.54-.01-8.69,2.93-11.24,6.67s-3.78,8.23-4.79,12.65c-.6,2.61-1.11,5.49.17,7.83.91,1.66,2.57,2.76,4.18,3.75,6.28,3.84,12.97,7.16,18.47,12.07,10.39,9.28,15.35,23.22,17.88,36.91.36,1.93.75,4.02,2.19,5.35.77.72,1.77,1.14,2.75,1.52,10.96,4.32,22.45,5.9,30.93,14.09"/>
        <path d="M1328.19,573.67c-.75-10.54-1.28-21.13-2.31-31.65-.93-9.49-3.37-18.48-7.87-26.92-8.82-16.54-23.51-28.94-39.2-38.73-3.91-2.44-8.23-5.22-13.03-5.05-4.14.14-7.96,2.38-10.65,5.45-3.06,3.5-4.69,7.95-5.84,12.4s-2.48,9.23.68,12.94c1.36,1.59,3.29,2.65,5.06,3.71,2.09,1.25,4.21,2.45,6.31,3.7,4.03,2.38,8,4.92,11.41,8.14,6.27,5.94,10.43,13.73,13.17,21.85,1.39,4.12,2.44,8.35,3.27,12.62.39,2,.66,4.13,1.82,5.87s3.16,2.59,5.12,3.34c8.12,3.1,16.91,4.82,24.37,9.44,1.85,1.14,3.54,2.46,5.12,3.96,1.4,1.33,3.52-.79,2.12-2.12-6.11-5.82-13.99-8.6-21.87-11.13-2.01-.65-4.03-1.29-6.03-1.98-1.84-.64-4.3-1.17-5.78-2.5s-1.58-3.53-1.92-5.28c-.39-2.03-.82-4.06-1.32-6.06-1.98-7.95-4.95-15.83-9.61-22.62-2.33-3.4-5.06-6.52-8.22-9.17-3.49-2.93-7.36-5.32-11.28-7.61-1.97-1.16-3.96-2.29-5.92-3.48-1.66-1-3.62-2.07-4.41-3.96-.85-2.03-.24-4.45.23-6.49.51-2.22,1.08-4.43,1.84-6.57,1.41-3.96,3.72-7.73,7.41-9.91,3.98-2.34,8.14-1.56,12.05.52s7.81,4.71,11.52,7.3,7.35,5.36,10.78,8.34c6.7,5.8,12.73,12.4,17.46,19.91,4.65,7.37,7.97,15.5,9.42,24.11.83,4.91,1.11,9.9,1.47,14.86s.72,10.13,1.08,15.19l.54,7.59c.14,1.91,3.14,1.93,3,0h0Z"/>
      </g>
      <g>
        <path class="cls-23" d="M1326.69,573.67c8.34,9.4,8.32,23.17-.06,32.48"/>
        <path d="M1325.63,574.73c7.61,8.71,7.62,21.69-.06,30.36-1.28,1.44.84,3.57,2.12,2.12,4.23-4.77,6.73-10.86,6.74-17.27s-2.47-12.52-6.68-17.33c-1.27-1.46-3.39.67-2.12,2.12h0Z"/>
      </g>
      <g>
        <path class="cls-23" d="M1305.27,592.25c3.34,1.39,6.63,2.91,9.85,4.56,4.07,2.09,8.18,4.53,10.72,8.33,1.76,2.64,2.64,5.77,3.29,8.89,2.98,14.43,1.26,29.79-4.84,43.21-2.03,4.47-4.57,8.77-8.08,12.21-9.82,9.6-26.08,10.51-38.37,4.38"/>
        <path d="M1304.87,593.69c4.33,1.8,8.66,3.78,12.7,6.16,3.66,2.16,6.85,4.9,8.5,8.92s2.32,8.74,2.71,13.12c.4,4.55.36,9.14-.12,13.68-.94,8.88-3.59,17.84-8.06,25.6-3.99,6.93-9.94,11.95-17.75,13.98s-16.84,1.03-24.26-2.62c-1.73-.85-3.25,1.74-1.51,2.59,7.29,3.58,15.57,4.88,23.59,3.56,8.28-1.37,15.48-5.8,20.37-12.62,5.53-7.73,8.72-17.47,10.14-26.79s1.31-19.74-1.43-29.01c-1.51-5.11-4.52-8.97-8.93-11.91-4.67-3.11-9.98-5.39-15.14-7.54-1.78-.74-2.56,2.16-.8,2.89h0Z"/>
      </g>
      <g>
        <path class="cls-23" d="M1289.14,656.03c-3.43,7.94-9.59,14.67-17.19,18.8-4.81,2.61-10.42,4.2-15.77,3.05-7.61-1.63-13.47-7.85-13.03-15.62"/>
        <path d="M1287.84,655.27c-3.3,7.54-8.94,13.93-16.13,17.97-3.87,2.18-8.27,3.7-12.77,3.49-3.63-.18-7.29-1.66-9.97-4.13-2.93-2.7-4.5-6.36-4.32-10.35.08-1.93-2.92-1.93-3,0-.37,8.31,5.91,15.16,13.79,16.99,9.53,2.22,19.43-3.17,26.09-9.63,3.76-3.65,6.8-8.03,8.91-12.83.77-1.75-1.82-3.28-2.59-1.51h0Z"/>
      </g>
      <g>
        <path class="cls-23" d="M1289.14,583.71c-10.5-.42-21.07-1.52-31.49-.08-10.41,1.45-20.92,5.83-27.19,14.27-6.26,8.44-6.94,21.44.39,28.98"/>
        <path d="M1289.14,582.21c-14.41-.6-29.46-2.43-43.27,2.85-5.65,2.16-10.99,5.39-15,9.97s-6.16,9.79-6.7,15.6c-.58,6.27,1.24,12.7,5.63,17.31,1.33,1.4,3.45-.72,2.12-2.12-7.39-7.75-5.75-20.67.82-28.37,7.89-9.25,20.46-12.45,32.15-12.95,8.09-.34,16.18.38,24.26.71,1.93.08,1.93-2.92,0-3h0Z"/>
      </g>
      <g>
        <path class="cls-23" d="M1297.21,560.02c-20.15-7.07-23.55,9.49-26.34,22.89"/>
        <path d="M1297.61,558.58c-5.78-2-12.68-2.9-17.91.97-4.38,3.24-6.58,8.5-8.06,13.57-.9,3.09-1.55,6.25-2.21,9.4-.39,1.88,2.5,2.69,2.89.8,1.73-8.32,3.68-21.67,14-23.32,3.53-.57,7.17.33,10.49,1.48,1.83.63,2.61-2.27.8-2.89h0Z"/>
      </g>
      <g>
        <path class="cls-23" d="M1262.42,646.74c-3.09,3.91-6.22,7.86-10.18,10.88s-8.9,5.06-13.86,4.55c-5.72-.58-10.91-4.78-12.68-10.25-1.76-5.45-.24-11.44,2.24-16.6,4.26-8.85,11.18-16.09,17.98-23.18"/>
        <path d="M1261.36,645.68c-3.73,4.72-7.58,9.66-12.92,12.65-4.9,2.74-10.77,3.42-15.66.31s-6.77-8.17-6.24-13.59c.58-5.96,3.73-11.55,7.08-16.38,3.89-5.6,8.65-10.54,13.37-15.45,1.34-1.39-.78-3.52-2.12-2.12-4.6,4.79-9.18,9.61-13.09,15s-7.29,11.46-8.14,18.08c-.79,6.11,1.23,12.14,6.14,16,4.86,3.82,11.18,4.48,16.9,2.27,7.21-2.78,12.14-8.76,16.8-14.64,1.18-1.5-.92-3.64-2.12-2.12h0Z"/>
      </g>
    </g>
    <g>
      <path d="M1288.7,351.72c10.98,39.73,17.22,92.74,11.43,133.56-.31,2.18-.64,4.46.07,6.55.69,2.06,2.29,3.66,3.84,5.19,3.06,3.01,6.12,6.03,9.18,9.04,5.72-16.07,11.42-32.73,10.29-49.76-.42-6.38-1.8-12.66-3.18-18.91-1.6-7.27-3.2-14.54-4.8-21.81-1.21-5.51-2.43-11.03-4.31-16.34-2.45-6.93-5.98-13.41-9.5-19.86-2.83-5.19-10.19-22.48-13.02-27.67"/>
      <path d="M1287.25,352.12c5.5,19.96,9.24,40.44,11.45,61.03s3.01,42,1.02,62.9c-.25,2.63-.55,5.27-.9,7.89-.4,2.94-1.01,6.01.15,8.86s3.51,4.8,5.59,6.85c2.53,2.49,5.06,4.99,7.59,7.48.85.84,2.13.38,2.51-.66,4.05-11.39,8.06-22.93,9.71-34.96.81-5.91,1.04-11.88.41-17.82-.64-6.12-2-12.13-3.32-18.13s-2.7-12.28-4.05-18.42c-1.32-5.99-2.57-12.02-4.57-17.82-3.18-9.19-8.4-17.37-12.49-26.13-3.45-7.38-6.45-15.04-10.34-22.21-.92-1.7-3.51-.18-2.59,1.51,3.37,6.21,6.03,12.83,8.97,19.25,1.3,2.83,2.57,5.68,4.05,8.42,2.75,5.11,5.58,10.2,7.83,15.56s3.87,11.51,5.2,17.44,2.66,12.06,3.99,18.1,2.73,11.84,3.71,17.84,1.23,11.85.73,17.81c-1.13,13.38-5.65,26.21-10.12,38.77l2.51-.66c-2.24-2.2-4.47-4.41-6.71-6.61-1.84-1.81-4.09-3.59-5.4-5.85-1.42-2.45-.79-5.35-.43-8,.31-2.31.59-4.62.83-6.93,1.04-10.09,1.37-20.26,1.24-30.4-.27-21.14-2.52-42.27-6.26-63.06-1.98-11.04-4.42-22.01-7.4-32.82-.51-1.86-3.41-1.07-2.89.8h0Z"/>
    </g>
    <g>
      <path d="M1252.83,501.28c9.57,7.86,19.15,15.9,26.72,25.71,7.56,9.81,13.3,18.69,13.47,31.07,3.54-.43,4.19,1.96,7.08,2.8.69.2,5.93,2.24,5.93,2.24,1-.9.01-6.52-.41-7.8-4.17-12.64-9.62-24.99-17.52-35.7-7.9-10.72-18.38-19.78-30.78-24.61-2.26-.88-7.82-1.05-7.82-1.05,0,0,1.38,8.02,3.66,8.84"/>
      <path d="M1251.77,502.35c7.55,6.2,15.09,12.49,21.68,19.72,3.15,3.45,6.03,7.14,8.72,10.97,2.44,3.46,4.7,7.1,6.37,11,1.9,4.45,2.89,9.2,2.98,14.03.01.75.68,1.58,1.5,1.5,1.66-.15,2.61.43,3.91,1.35,1.02.72,2.09,1.15,3.26,1.56,1.83.64,3.63,1.37,5.44,2.07.47.18,1.13-.03,1.46-.39,1.47-1.61.84-4.58.55-6.5-.43-2.84-1.48-5.52-2.46-8.21-2.63-7.21-5.72-14.27-9.52-20.94-7.08-12.41-16.81-23.56-29.26-30.79-1.74-1.01-3.53-1.94-5.36-2.77-1.5-.68-3.03-1.43-4.65-1.78-2.25-.49-4.6-.66-6.89-.73-1.05-.03-1.61.98-1.45,1.9.26,1.51.63,3.02,1.09,4.49.56,1.77,1.38,4.45,3.26,5.25.75.32,1.6.22,2.05-.54.38-.63.21-1.74-.54-2.05-1.14-.48-1.74-2.93-2.11-4.2s-.65-2.48-.87-3.74l-1.45,1.9c1.8.06,3.62.18,5.39.49,2.78.49,5.41,1.9,7.89,3.21,5.71,3.03,10.91,6.94,15.53,11.46,10.01,9.78,17.09,22.16,22.24,35.09,1.36,3.4,2.81,6.9,3.75,10.44.29,1.1.47,2.24.58,3.37.06.63.11,1.27.09,1.9,0,.14-.03.34-.02.48,0,.25-.22.45.03.17l1.46-.39c-1.85-.72-3.7-1.47-5.58-2.12-1.2-.42-2.13-1.05-3.18-1.76-1.42-.95-2.95-1.37-4.65-1.21l1.5,1.5c-.17-9-3.46-17.16-8.41-24.58-5.43-8.14-11.89-15.45-19.1-22.05-4.25-3.89-8.68-7.56-13.12-11.21-1.48-1.22-3.61.89-2.12,2.12h0Z"/>
    </g>
    <g>
      <path d="M880.74,383.2c2.78,10.66,12.43,17.86,21.45,24.18,10.74,7.52,17.39,17.09,29.32,22.53,11.93,5.44,29.32,6.7,42.35,5.21,1.22-.14,2.48-.34,3.47-1.07.91-.67,1.46-1.71,1.95-2.72,1.76-3.67,3-7.59,3.68-11.6-34.24,5.31-70.82-8.47-93.06-35.04-1.28-1.53-2.56-3.14-4.34-4.04s-4.2-.89-5.51.61"/>
      <path d="M879.29,383.6c2.24,8.33,8.37,14.66,14.99,19.84,3.55,2.77,7.36,5.21,10.86,8.04s6.63,5.81,9.91,8.75,6.79,5.87,10.59,8.24,7.73,4.04,11.91,5.3c8.58,2.59,17.73,3.53,26.67,3.44,2.37-.02,4.74-.13,7.1-.33s5.13-.21,7.07-1.76,2.89-4.43,3.76-6.71c1.02-2.68,1.76-5.45,2.26-8.28.21-1.2-.67-2.03-1.85-1.85-15.1,2.31-30.66.84-45.18-3.81s-27.95-12.45-38.97-22.93c-3.13-2.98-5.86-6.25-8.74-9.45-2.62-2.92-7.37-5.32-10.67-1.91-1.34,1.39.77,3.51,2.12,2.12,1.2-1.24,3.07-.84,4.38.02,1.59,1.05,2.74,2.71,3.97,4.14,2.44,2.85,5.04,5.56,7.8,8.11,5.5,5.09,11.59,9.57,18.07,13.35,13.05,7.6,27.7,12.37,42.72,13.9,8.43.86,16.93.63,25.31-.66l-1.85-1.85c-.42,2.38-1.01,4.72-1.8,7-.38,1.09-.79,2.16-1.26,3.22-.44.99-.88,2.15-1.63,2.95-1.31,1.38-3.92,1.25-5.69,1.39-1.97.16-3.95.26-5.93.3-8.51.17-17.15-.62-25.38-2.89-3.94-1.09-7.73-2.55-11.28-4.59s-6.92-4.68-10.06-7.43-6.16-5.65-9.34-8.35-6.81-5.19-10.27-7.74c-7.12-5.23-14.32-11.53-16.7-20.38-.5-1.86-3.4-1.07-2.89.8h0Z"/>
    </g>
    <g>
      <path d="M392.31,774.64c-9.23,3.1-17.75,7.98-26.2,12.83-3.55,2.04-7.13,4.1-10.13,6.87-3.94,3.64-6.73,8.33-9.31,13.03-5.13,9.32-9.7,18.95-13.7,28.81,4.38.16,8.31-2.94,10.71-6.61s3.67-7.95,5.54-11.92c6.51-13.84,20.01-23.31,34.32-28.71,2.57-.97,5.28-1.89,7.23-3.83s2.85-5.26,1.2-7.46"/>
      <path d="M391.91,773.2c-5.69,1.93-11.13,4.48-16.43,7.31-5.2,2.77-10.46,5.61-15.4,8.83s-8.48,7.04-11.52,11.82c-3.17,4.98-5.86,10.31-8.48,15.59-3.09,6.23-5.93,12.59-8.55,19.04-.38.93.57,1.89,1.45,1.9,6.33.1,11-4.94,13.62-10.21,1.52-3.07,2.61-6.33,4.09-9.41,1.26-2.62,2.79-5.11,4.53-7.44,7.05-9.39,17.53-15.95,28.37-20.1,3.19-1.22,6.74-2.33,8.93-5.13,1.86-2.39,2.56-5.87.75-8.49-1.09-1.58-3.69-.08-2.59,1.51,1.56,2.26.05,5.01-1.92,6.45-2.28,1.67-5.17,2.41-7.76,3.47-5.12,2.09-10.05,4.63-14.61,7.76s-8.66,6.71-12.14,10.92c-3.67,4.46-6.2,9.35-8.38,14.67s-5.79,13.1-12.9,12.99l1.45,1.9c4.41-10.85,9.43-21.57,15.37-31.68,2.81-4.79,6.11-9.07,10.72-12.25,4.57-3.16,9.58-5.79,14.45-8.46,5.72-3.13,11.57-6.01,17.75-8.11,1.82-.62,1.04-3.52-.8-2.89h0Z"/>
    </g>
    <g>
      <path d="M631.67,745.01c30.03-4.9,44.84-14.1,63.76-37.87,7.65-9.5,15.23-19.22,21.17-29.91,8.87-16.31,14.76-33.56,21.54-50.88,1.4-3.91,3.81-17.69,3.81-17.69-1.07-.36-5.7,1.43-5.7,1.43-2.43,3.21-4.89,10.47-6.48,14.33-7.73,18.49-15.53,36.97-24.48,54.9-8.56,17.95-30.04,39.49-47.92,48.8-8.09,4.71-17.1,7.03-25.06,9.02,0,0-.64,3.98-.56,6.72"/>
      <path d="M632.07,746.45c11.15-1.83,22.26-4.56,32.35-9.76,9.38-4.83,17.41-11.76,24.47-19.53,4.56-5.01,8.76-10.35,12.93-15.69,4.8-6.14,9.43-12.43,13.49-19.08,8.15-13.37,13.76-28.22,19.32-42.8,2.19-5.73,4.78-11.4,6.15-17.4.93-4.08,1.71-8.19,2.44-12.3.05-.28.1-.56.15-.84.14-.78-.2-1.64-1.05-1.85-1.68-.41-3.69.44-5.25.98-.5.17-1.14.32-1.6.6-.88.55-1.48,1.94-1.96,2.83-2.53,4.72-4.17,9.92-6.24,14.85-5.47,13.08-11.01,26.13-16.99,38.98-2.65,5.7-5.25,11.49-8.32,16.98-2.67,4.76-5.83,9.24-9.26,13.47-7.24,8.94-15.66,17.12-24.96,23.9-4.98,3.63-10.33,6.91-15.94,9.49-6.35,2.93-13.15,4.69-19.91,6.38-.46.12-.97.56-1.05,1.05-.37,2.35-.66,4.74-.62,7.12.03,1.93,3.03,1.93,3,0-.03-2.11.18-4.24.51-6.32l-1.05,1.05c5.6-1.4,11.21-2.86,16.6-4.97,5.06-1.98,9.9-4.57,14.49-7.47,8.9-5.63,16.97-12.66,24.2-20.3,7.03-7.43,13.59-15.68,18.16-24.88,5.76-11.59,11.11-23.36,16.22-35.24,2.93-6.8,5.8-13.62,8.65-20.46,2-4.79,3.4-10.19,6.52-14.41l-.9.69c.72-.28,1.46-.53,2.19-.77.59-.19,1.2-.37,1.8-.51.23-.05.47-.08.7-.14.09-.02.55.08.2,0l-1.05-1.85c-.57,3.23-1.18,6.45-1.84,9.66-.43,2.09-.88,4.19-1.43,6.25-.78,2.89-2.04,5.65-3.11,8.43-5.58,14.57-10.98,29.26-18.36,43.03-3.59,6.69-7.92,12.98-12.46,19.05-4.26,5.69-8.68,11.31-13.3,16.72-6.89,8.07-14.58,15.54-23.8,20.91-10.69,6.23-22.8,9.26-34.92,11.25-1.9.31-1.09,3.2.8,2.89h0Z"/>
    </g>
    <ellipse class="cls-9" cx="473.58" cy="589.05" rx="134.05" ry="24.28" transform="translate(-40.64 35.13) rotate(-4.07)"/>
    <path class="cls-15" d="M365.46,596.93c1.4-6.59,10.55-8.87,16.73-10.94,32.05-9.55,66.97-14.22,100.56-14.22-26.77,1.8-53.52,7.84-79.14,15.16-7.64,2.61-19.45,7.01-23.71,13.5-1.22,1.82-.41,5.24-.41,6.13-.02.27.29-.09,0,0-4.5-.05-14.52-3.71-14.07-9.29l.03-.35Z"/>
  </g>
</svg>