<svg width="24" xmlns="http://www.w3.org/2000/svg" height="24" id="screenshot-5fa9c06b-70a1-80a6-8006-9d1c0570adec" viewBox="0 0 24 24" xmlns:xlink="http://www.w3.org/1999/xlink" fill="none" version="1.1"><g id="shape-5fa9c06b-70a1-80a6-8006-9d1c0570adec"><g class="frame-container-wrapper"><g class="frame-container-blur"><g class="frame-container-shadows"><g fill="none"><g class="fills" id="fills-5fa9c06b-70a1-80a6-8006-9d1c0570adec"><rect rx="0" ry="0" x="0" y="0" width="24" height="24" transform="matrix(1.000000, 0.000000, 0.000000, 1.000000, 0.000000, 0.000000)" class="frame-background"/></g><g class="frame-children"><g id="shape-5fa9c06b-70a1-80a6-8006-9d1c0570cab2" rx="0" ry="0" style="fill: rgb(0, 0, 0);"><g id="shape-5fa9c06b-70a1-80a6-8006-9d1c0570cab3" style="display: none;"><g class="fills" id="fills-5fa9c06b-70a1-80a6-8006-9d1c0570cab3"><rect width="24" height="24" x="0" transform="matrix(1.000000, 0.000000, 0.000000, 1.000000, 0.000000, 0.000000)" style="fill: none;" ry="0" fill="none" rx="0" y="0"/></g></g><g id="shape-5fa9c06b-70a1-80a6-8006-9d1c0570cab4"><g class="fills" id="fills-5fa9c06b-70a1-80a6-8006-9d1c0570cab4"><path d="M5,2L19,2C19.55224609375,2,20,2.44775390625,20,3L20,22.143310546875C20,22.41943359375,19.776123046875,22.6434326171875,19.5,22.6434326171875C19.4061279296875,22.6434326171875,19.31396484375,22.6168212890625,19.234375,22.56689453125L12,18.03125L4.765625,22.56689453125C4.5316162109375,22.713623046875,4.2230224609375,22.6429443359375,4.076416015625,22.408935546875C4.0264892578125,22.329345703125,4,22.2373046875,4,22.143310546875L4,3C4,2.44775390625,4.44775390625,2,5,2ZM18,4L6,4L6,19.432373046875L12,15.670654296875L18,19.432373046875L18,4Z" style="fill: rgb(0, 0, 0);"/></g></g></g></g></g></g></g></g></g></svg>