<svg width="617" height="166" viewBox="0 0 617 166" fill="none" xmlns="http://www.w3.org/2000/svg">
<rect width="617" height="166" fill="#44624A"/>
<path fill-rule="evenodd" clip-rule="evenodd" d="M150.839 57.3958C149.988 57.9834 149.236 59.0381 149.103 59.8313C148.941 60.7918 149.152 61.5172 149.946 62.7229C151.234 64.6811 151.472 65.8618 150.927 67.6051C150.767 68.1147 150.636 68.6467 150.635 68.7875C150.632 69.2437 151.102 69.0596 151.755 68.349C152.955 67.044 153.493 65.3391 153.13 63.9924C153.042 63.6663 152.569 62.7285 152.079 61.9083C150.992 60.0883 150.906 59.633 151.42 58.409C152.046 56.9182 151.899 56.663 150.839 57.3958ZM146.409 60.456C145.659 61.2176 145.384 61.8921 145.384 62.966C145.384 63.8804 145.415 63.9618 146.208 65.1276C147.511 67.0442 147.654 67.6322 147.195 69.1811C146.91 70.1437 147.067 70.3842 147.689 69.9398C148.292 69.5097 149.005 68.342 149.155 67.5408C149.292 66.8053 149.153 65.6037 148.87 65.07C148.771 64.8837 148.349 64.2309 147.932 63.6193C147.09 62.3848 146.912 61.7747 147.121 60.8437C147.345 59.8417 147.129 59.7242 146.409 60.456ZM143.707 69.3591C139.288 70.1896 136.651 71.5244 136.176 73.1714C135.94 73.9876 135.942 77.9705 136.178 79.4941C136.278 80.1372 136.56 81.3194 136.804 82.1213C137.607 84.7621 138.564 86.3247 140.788 88.6295C142.58 90.4874 142.72 90.704 142.997 92.0379C143.248 93.2516 143.469 93.6488 144.116 94.044C144.553 94.3109 144.881 94.3289 149.354 94.3293C153.391 94.3298 154.216 94.2938 154.71 94.0959C155.374 93.8297 155.798 93.2318 155.944 92.3567C156.189 90.8952 156.455 90.4212 157.898 88.8803C158.674 88.052 159.665 86.9331 160.1 86.394C160.535 85.8549 160.961 85.4121 161.047 85.41C161.134 85.408 161.845 85.3438 162.628 85.2675C163.756 85.1574 164.278 85.0234 165.147 84.6212C168.067 83.2687 169.58 80.2105 168.794 77.2496C168.224 75.1031 166.591 74.0129 163.948 74.0129C162.825 74.0129 162.735 73.991 162.735 73.7147C162.735 72.9036 161.608 71.5599 160.416 70.9503C158.898 70.1743 155.978 69.3926 154.027 69.2404C152.68 69.1353 152.383 69.2574 152.383 69.9154C152.383 70.5732 152.783 70.7793 154.657 71.0872C158.652 71.7438 160.985 72.8868 160.985 74.1871C160.985 75.3904 158.161 76.745 154.278 77.4041C151.68 77.8451 147.104 77.8443 144.497 77.4023C141.811 76.947 139.124 75.9111 138.281 75.0052C137.728 74.4113 137.72 73.9705 138.251 73.3638C139.116 72.3763 140.846 71.708 143.926 71.172L145.748 70.8548L145.792 70.0221L145.836 69.1894L145.136 69.2058C144.751 69.2147 144.108 69.2839 143.707 69.3591ZM149.394 71.9198C147.342 72.3807 145.879 73.6204 145.174 75.4952C144.729 76.6781 144.898 76.7854 145.894 75.9525C147.184 74.8738 148.548 74.0336 149.426 73.7779C150.566 73.4456 150.618 73.5827 149.579 74.1817C148.534 74.7845 146.467 76.2992 146.06 76.7605C145.792 77.0642 145.794 77.0699 146.179 77.1669C146.394 77.2209 147.279 77.236 148.145 77.2002C150.062 77.1211 150.94 76.7569 152.041 75.5834C152.894 74.6734 154.194 72.63 154.09 72.3599C153.96 72.0183 150.428 71.6875 149.394 71.9198ZM165.552 76.2232C166.693 76.8112 167.247 78.1109 166.961 79.5306C166.54 81.6183 164.951 82.994 162.602 83.3065C162.194 83.3608 161.86 83.3621 161.86 83.3093C161.86 83.2567 161.99 82.7055 162.148 82.0847C162.604 80.3001 162.881 78.4565 162.881 77.2094V76.0592H164.057C164.704 76.0592 165.376 76.133 165.552 76.2232ZM138.692 77.5628C139.149 77.8718 139.194 77.9716 139.284 78.8792C139.402 80.0684 139.734 81.435 140.219 82.7248C140.679 83.9498 140.994 84.5668 142.066 86.3368C142.544 87.1258 142.908 87.7979 142.876 87.8302C142.766 87.9404 140.769 85.9269 140.299 85.2324C139.442 83.9643 138.687 82.1719 138.313 80.5173C137.955 78.9308 137.83 77.2285 138.072 77.2285C138.14 77.2285 138.419 77.3789 138.692 77.5628ZM144.366 95.8334C143.807 96.1168 143.656 96.7247 144.023 97.217L144.322 97.6186L149.507 97.6571L154.692 97.6954L155.004 97.2979C155.373 96.827 155.301 96.2875 154.816 95.9044C154.528 95.6767 154.019 95.6518 149.612 95.6508C145.979 95.6499 144.635 95.6967 144.366 95.8334ZM144.422 99.0698C143.7 99.3845 143.564 100.068 144.117 100.59C144.451 100.903 144.519 100.907 149.56 100.907H154.665L154.996 100.554C155.439 100.081 155.305 99.3859 154.711 99.0778C154.125 98.7744 145.114 98.7674 144.422 99.0698ZM145.384 102.348C145.384 102.608 146.392 103.782 146.933 104.152C147.59 104.601 148.852 105 149.612 105C150.403 105 151.528 104.621 152.213 104.124C152.785 103.708 153.695 102.618 153.695 102.347C153.695 102.279 151.825 102.223 149.539 102.223C147.254 102.223 145.384 102.279 145.384 102.348Z" fill="white"/>
<path d="M470.717 75.7046C472.562 75.693 474.176 76.0856 475.558 76.8825C476.966 77.6791 478.011 78.6859 478.695 79.9028L478.67 76.0054L482.256 75.9829L482.393 97.8084C482.405 99.7571 482 101.488 481.178 103C480.357 104.538 479.169 105.741 477.615 106.608C476.088 107.475 474.298 107.915 472.245 107.928C469.439 107.946 467.096 107.298 465.217 105.984C463.338 104.671 462.222 102.872 461.87 100.588L465.378 100.566C465.776 101.862 466.588 102.897 467.814 103.668C469.04 104.466 470.511 104.86 472.226 104.849C474.174 104.837 475.755 104.216 476.969 102.987C478.208 101.758 478.821 100.039 478.807 97.831L478.779 93.3489C478.085 94.6005 477.053 95.6464 475.681 96.4865C474.309 97.3266 472.701 97.7524 470.856 97.764C468.959 97.7759 467.228 97.3191 465.664 96.3935C464.125 95.4678 462.908 94.1632 462.014 92.4799C461.12 90.7966 460.666 88.8766 460.653 86.72C460.639 84.5375 461.069 82.625 461.942 80.9825C462.815 79.3141 464.015 78.0203 465.542 77.1013C467.096 76.1821 468.821 75.7165 470.717 75.7046ZM478.737 86.6454C478.727 85.0344 478.393 83.6334 477.736 82.4423C477.079 81.2512 476.19 80.3473 475.069 79.7308C473.973 79.088 472.763 78.7709 471.438 78.7792C470.113 78.7875 468.907 79.1069 467.819 79.7373C466.732 80.3678 465.867 81.2826 465.225 82.4819C464.583 83.6812 464.267 85.0863 464.277 86.6973C464.288 88.3342 464.621 89.7612 465.279 90.9783C465.936 92.1694 466.812 93.0863 467.907 93.7291C469.003 94.3458 470.213 94.65 471.538 94.6417C472.863 94.6333 474.069 94.3139 475.157 93.6835C476.27 93.0269 477.147 92.099 477.789 90.8997C478.431 89.6744 478.747 88.2563 478.737 86.6454Z" fill="white"/>
<path d="M447.385 75.8123C449.983 75.796 452.093 76.5752 453.714 78.15C455.335 79.6989 456.154 81.9543 456.173 84.9163L456.252 97.505L452.744 97.527L452.668 85.4451C452.655 83.3145 452.112 81.6939 451.04 80.5833C449.967 79.4468 448.509 78.8843 446.664 78.8959C444.793 78.9077 443.303 79.5017 442.193 80.6779C441.109 81.854 440.574 83.5593 440.588 85.7938L440.662 97.603L437.116 97.6253L436.981 76.2674L440.528 76.2451L440.547 79.2851C441.242 78.1894 442.185 77.339 443.376 76.7339C444.594 76.1286 445.93 75.8214 447.385 75.8123Z" fill="white"/>
<path d="M429.2 72.8474C428.525 72.8516 427.952 72.6214 427.481 72.1566C427.01 71.6919 426.773 71.1217 426.769 70.4462C426.764 69.7706 426.995 69.1975 427.459 68.7269C427.924 68.2563 428.494 68.0188 429.17 68.0146C429.819 68.0105 430.366 68.2409 430.811 68.7058C431.282 69.1706 431.519 69.7407 431.523 70.4163C431.528 71.0919 431.297 71.6649 430.833 72.1356C430.394 72.606 429.85 72.8433 429.2 72.8474ZM430.937 76.3053L431.071 97.6631L427.524 97.6854L427.39 76.3276L430.937 76.3053Z" fill="white"/>
<path d="M399.794 87.1026C399.78 84.92 400.21 83.0075 401.083 81.365C401.956 79.6966 403.156 78.4028 404.683 77.4838C406.237 76.5646 407.975 76.099 409.897 76.0869C411.56 76.0764 413.109 76.4565 414.543 77.227C415.976 77.9715 417.074 78.965 417.835 80.2074L417.764 68.9049L421.35 68.8824L421.531 97.7232L417.945 97.7458L417.92 93.7314C417.227 95.009 416.194 96.0678 414.822 96.9079C413.45 97.7221 411.842 98.1349 409.997 98.1465C408.1 98.1584 406.369 97.7016 404.805 96.776C403.266 95.8503 402.049 94.5457 401.155 92.8624C400.261 91.1791 399.807 89.2591 399.794 87.1026ZM417.878 87.0279C417.868 85.417 417.534 84.0159 416.877 82.8248C416.22 81.6337 415.331 80.7298 414.21 80.1133C413.115 79.4706 411.904 79.1534 410.579 79.1617C409.254 79.17 408.048 79.4894 406.96 80.1198C405.873 80.7503 405.008 81.6652 404.366 82.8644C403.724 84.0637 403.408 85.4688 403.418 87.0798C403.429 88.7167 403.762 90.1437 404.42 91.3608C405.077 92.5519 405.953 93.4689 407.048 94.1116C408.144 94.7283 409.354 95.0325 410.679 95.0242C412.004 95.0158 413.21 94.6965 414.298 94.066C415.411 93.4094 416.288 92.4815 416.93 91.2822C417.572 90.0569 417.888 88.6388 417.878 87.0279Z" fill="white"/>
<path d="M386.526 76.1946C389.124 76.1783 391.234 76.9575 392.855 78.5324C394.476 80.0812 395.295 82.3366 395.314 85.2987L395.393 97.8873L391.885 97.9094L391.809 85.8274C391.796 83.6968 391.253 82.0762 390.181 80.9657C389.108 79.8291 387.65 79.2666 385.805 79.2782C383.934 79.29 382.444 79.884 381.334 81.0602C380.25 82.2363 379.715 83.9416 379.729 86.1761L379.803 97.9853L376.257 98.0076L376.123 76.6498L379.669 76.6275L379.688 79.6674C380.383 78.5718 381.326 77.7214 382.518 77.1162C383.735 76.511 385.071 76.2038 386.526 76.1946Z" fill="white"/>
<path d="M370.134 76.6876L370.268 98.0454L366.721 98.0677L366.702 94.9108C366.033 96.0063 365.09 96.8697 363.873 97.501C362.681 98.1061 361.358 98.4132 359.903 98.4224C358.24 98.4328 356.744 98.1044 355.415 97.4372C354.085 96.744 353.026 95.7113 352.238 94.3391C351.476 92.9668 351.089 91.2933 351.076 89.3186L350.998 76.8079L354.505 76.7858L354.581 88.8288C354.594 90.9334 355.137 92.554 356.209 93.6906C357.282 94.8011 358.74 95.3506 360.585 95.339C362.482 95.3271 363.972 94.7331 365.056 93.557C366.14 92.3809 366.675 90.6756 366.661 88.4411L366.587 76.7099L370.134 76.6876Z" fill="white"/>
<path d="M346.872 71.0263L346.891 73.9104L335.081 73.9846L335.139 83.1435L344.727 83.0833L344.745 85.9674L335.157 86.0276L335.234 98.2655L331.687 98.2878L331.517 71.1228L346.872 71.0263Z" fill="white"/>
<path d="M303.49 87.5909C303.476 85.4083 303.893 83.4699 304.74 81.7756C305.612 80.0812 306.786 78.7746 308.262 77.8559C309.763 76.9371 311.436 76.4718 313.281 76.4602C314.892 76.4501 316.297 76.7661 317.496 77.4082C318.721 78.05 319.701 78.8624 320.435 79.8452L320.415 76.7662L325.911 76.7317L326.046 98.3233L320.551 98.3579L320.531 95.201C319.836 96.2187 318.867 97.0693 317.624 97.7527C316.407 98.4099 314.993 98.7436 313.382 98.7537C311.563 98.7651 309.897 98.3079 308.384 97.382C306.898 96.4559 305.707 95.1512 304.813 93.4679C303.945 91.7584 303.504 89.7994 303.49 87.5909ZM320.483 87.562C320.475 86.2369 320.208 85.1083 319.682 84.1762C319.157 83.2181 318.451 82.495 317.564 82.0069C316.677 81.4928 315.727 81.2389 314.714 81.2453C313.701 81.2516 312.767 81.5043 311.913 82.0034C311.058 82.5025 310.361 83.2344 309.822 84.1992C309.308 85.1378 309.055 86.2567 309.063 87.5558C309.071 88.855 309.338 89.9966 309.864 90.9807C310.416 91.9386 311.122 92.6747 311.983 93.189C312.87 93.7031 313.807 93.957 314.794 93.9508C315.807 93.9445 316.754 93.6917 317.634 93.1924C318.515 92.6672 319.211 91.9353 319.725 90.9967C320.239 90.032 320.492 88.8872 320.483 87.562Z" fill="white"/>
<path d="M291.217 76.6378C292.854 76.6275 294.311 76.9822 295.589 77.7017C296.866 78.3952 297.86 79.4413 298.571 80.84C299.307 82.2125 299.681 83.8731 299.693 85.8218L299.773 98.4884L294.316 98.5227L294.241 86.5966C294.231 84.8817 293.794 83.5723 292.931 82.6683C292.067 81.7383 290.895 81.278 289.414 81.2873C287.907 81.2967 286.715 81.7719 285.837 82.7129C284.986 83.6277 284.565 84.9425 284.576 86.6573L284.651 98.5834L279.194 98.6177L279.013 69.7769L284.47 69.7426L284.532 79.681C285.228 78.7412 286.158 78.0078 287.324 77.4808C288.49 76.9278 289.788 76.6468 291.217 76.6378Z" fill="white"/>
<path d="M254.278 87.9781C254.264 85.7436 254.706 83.7921 255.605 82.1235C256.504 80.4289 257.756 79.1218 259.361 78.2023C260.966 77.2568 262.808 76.7775 264.887 76.7644C267.563 76.7476 269.776 77.4093 271.525 78.7494C273.3 80.0635 274.494 81.9268 275.107 84.3394L269.222 84.3764C268.904 83.443 268.367 82.7188 267.61 82.2039C266.879 81.6628 265.968 81.3957 264.877 81.4026C263.318 81.4124 262.088 81.9918 261.185 83.1407C260.283 84.2637 259.838 85.8645 259.851 87.9431C259.864 89.9958 260.329 91.5908 261.246 92.7284C262.162 93.8399 263.4 94.3908 264.959 94.381C267.167 94.3671 268.603 93.3707 269.266 91.3918L275.151 91.3548C274.568 93.697 273.398 95.5622 271.64 96.9504C269.881 98.3386 267.677 99.041 265.027 99.0576C262.948 99.0707 261.101 98.6276 259.484 97.7283C257.867 96.8031 256.599 95.5119 255.679 93.8547C254.759 92.1715 254.292 90.2127 254.278 87.9781Z" fill="white"/>
<path d="M246.884 81.7105L246.95 92.1556C246.954 92.8831 247.127 93.4147 247.467 93.7503C247.832 94.0598 248.431 94.212 249.262 94.2067L251.796 94.1908L251.825 98.7898L248.395 98.8113C243.796 98.8402 241.482 96.6201 241.454 92.1511L241.389 81.745L238.817 81.7612L238.788 77.2792L241.361 77.263L241.327 71.9235L246.823 71.889L246.856 77.2285L251.689 77.1981L251.717 81.6801L246.884 81.7105Z" fill="white"/>
<path d="M212.753 88.1609C212.74 85.9784 213.156 84.04 214.003 82.3457C214.876 80.6513 216.05 79.3447 217.525 78.426C219.026 77.5071 220.7 77.0419 222.544 77.0303C224.155 77.0202 225.56 77.3362 226.76 77.9782C227.985 78.6201 228.964 79.4324 229.698 80.4152L229.679 77.3363L235.174 77.3017L235.31 98.8934L229.814 98.9279L229.795 95.771C229.099 96.7888 228.13 97.6393 226.887 98.3227C225.67 98.98 224.256 99.3137 222.645 99.3238C220.827 99.3352 219.161 98.878 217.648 97.9521C216.161 97.026 214.971 95.7213 214.077 94.038C213.208 92.3285 212.767 90.3695 212.753 88.1609ZM229.747 88.1321C229.738 86.807 229.471 85.6784 228.946 84.7463C228.42 83.7882 227.714 83.065 226.828 82.5769C225.941 82.0628 224.991 81.809 223.977 81.8153C222.964 81.8217 222.03 82.0744 221.176 82.5735C220.322 83.0725 219.625 83.8045 219.085 84.7692C218.571 85.7079 218.319 86.8268 218.327 88.1259C218.335 89.4251 218.602 90.5667 219.128 91.5507C219.679 92.5087 220.386 93.2448 221.246 93.759C222.133 94.2731 223.07 94.5271 224.057 94.5209C225.071 94.5145 226.017 94.2617 226.898 93.7625C227.778 93.2373 228.475 92.5054 228.989 91.5667C229.502 90.6021 229.755 89.4572 229.747 88.1321Z" fill="white"/>
<path d="M208.659 71.8558L208.83 99.0598L203.374 99.0941L203.263 81.3998L196.086 99.1399L191.954 99.1659L184.516 81.5176L184.627 99.2119L179.171 99.2462L179 72.0422L185.197 72.0033L193.976 92.1765L202.501 71.8945L208.659 71.8558Z" fill="white"/>
</svg>
