<svg width="24" xmlns="http://www.w3.org/2000/svg" height="24" id="screenshot-5fa9c06b-70a1-80a6-8006-9d1c057075a7" viewBox="0 0 24 24" xmlns:xlink="http://www.w3.org/1999/xlink" fill="none" version="1.1"><g id="shape-5fa9c06b-70a1-80a6-8006-9d1c057075a7"><g class="frame-container-wrapper"><g class="frame-container-blur"><g class="frame-container-shadows"><g fill="none"><g class="fills" id="fills-5fa9c06b-70a1-80a6-8006-9d1c057075a7"><rect rx="0" ry="0" x="0" y="0" width="24" height="24" transform="matrix(1.000000, 0.000000, 0.000000, 1.000000, 0.000000, 0.000000)" class="frame-background"/></g><g class="frame-children"><g id="shape-5fa9c06b-70a1-80a6-8006-9d1c057075ef" rx="0" ry="0" style="fill: rgb(0, 0, 0);"><g id="shape-5fa9c06b-70a1-80a6-8006-9d1c057075f0" style="display: none;"><g class="fills" id="fills-5fa9c06b-70a1-80a6-8006-9d1c057075f0"><rect width="24" height="24" x="0" transform="matrix(1.000000, 0.000000, 0.000000, 1.000000, 0.000000, 0.000000)" style="fill: none;" ry="0" fill="none" rx="0" y="0"/></g></g><g id="shape-5fa9c06b-70a1-80a6-8006-9d1c057075f1"><g class="fills" id="fills-5fa9c06b-70a1-80a6-8006-9d1c057075f1"><path d="M3,19L3,5.700439453125C3,5.2799072265625,3.2630615234375,4.9044189453125,3.65826416015625,4.7606201171875L13.3291015625,1.2440185546875C13.588623046875,1.149658203125,13.87548828125,1.283447265625,13.96990966796875,1.54296875C13.98980712890625,1.5977783203125,14,1.6556396484375,14,1.7138671875L14,6.666748046875L20.316162109375,8.7720947265625C20.724609375,8.908203125,21,9.2904052734375,21,9.7208251953125L21,19L23,19L23,21L1,21L1,19L3,19ZM5,19L12,19L12,3.85546875L5,6.40087890625L5,19ZM19,19L19,10.441650390625L14,8.77490234375L14,19L19,19Z" style="fill: rgb(0, 0, 0);"/></g></g></g></g></g></g></g></g></g></svg>