<svg width="20" xmlns="http://www.w3.org/2000/svg" height="20" id="screenshot-5fa9c06b-70a1-80a6-8006-9d1c057620a3" viewBox="1540 5786 20 20" xmlns:xlink="http://www.w3.org/1999/xlink" fill="none" version="1.1"><g id="shape-5fa9c06b-70a1-80a6-8006-9d1c057620a3"><g class="fills" id="fills-5fa9c06b-70a1-80a6-8006-9d1c057620a3"><path d="M1550,5806C1544.4771728515625,5806,1540,5801.52294921875,1540,5796C1540,5790.47705078125,1544.4771728515625,5786,1550,5786C1555.5228271484375,5786,1560,5790.47705078125,1560,5796C1560,5801.52294921875,1555.5228271484375,5806,1550,5806ZM1550,5804C1554.4183349609375,5804,1558,5800.41845703125,1558,5796C1558,5791.58154296875,1554.4183349609375,5788,1550,5788C1545.5816650390625,5788,1542,5791.58154296875,1542,5796C1542,5800.41845703125,1545.5816650390625,5804,1550,5804ZM1550,5794.5859375L1552.828369140625,5791.75732421875L1554.2425537109375,5793.17138671875L1551.4141845703125,5796L1554.2425537109375,5798.82861328125L1552.828369140625,5800.24267578125L1550,5797.4140625L1547.171630859375,5800.24267578125L1545.75732421875,5798.82861328125L1548.5858154296875,5796L1545.75732421875,5793.17138671875L1547.171630859375,5791.75732421875L1550,5794.5859375Z" style="fill: rgb(0, 0, 0);"/></g></g></svg>