<svg width="24" xmlns="http://www.w3.org/2000/svg" height="24" id="screenshot-5fa9c06b-70a1-80a6-8006-9d1c056fc8bf" viewBox="0 0 24 24" xmlns:xlink="http://www.w3.org/1999/xlink" fill="none" version="1.1"><g id="shape-5fa9c06b-70a1-80a6-8006-9d1c056fc8bf"><g class="frame-container-wrapper"><g class="frame-container-blur"><g class="frame-container-shadows"><g fill="none"><g class="fills" id="fills-5fa9c06b-70a1-80a6-8006-9d1c056fc8bf"><rect rx="0" ry="0" x="0" y="0" width="24" height="24" transform="matrix(1.000000, 0.000000, 0.000000, 1.000000, 0.000000, 0.000000)" class="frame-background"/></g><g class="frame-children"><g id="shape-5fa9c06b-70a1-80a6-8006-9d1c05707524" rx="0" ry="0" style="fill: rgb(0, 0, 0);"><g id="shape-5fa9c06b-70a1-80a6-8006-9d1c05707525" style="display: none;"><g class="fills" id="fills-5fa9c06b-70a1-80a6-8006-9d1c05707525"><rect width="24" height="24" x="0" transform="matrix(1.000000, 0.000000, 0.000000, 1.000000, 0.000000, 0.000000)" style="fill: none;" ry="0" fill="none" rx="0" y="0"/></g></g><g id="shape-5fa9c06b-70a1-80a6-8006-9d1c05707526"><g class="fills" id="fills-5fa9c06b-70a1-80a6-8006-9d1c05707526"><path d="M16,16L16,12L21,17L16,22L16,18L4,18L4,16L16,16ZM8,2L8,5.9990234375L20,6L20,8L8,8L8,12L3,7L8,2Z" style="fill: rgb(0, 0, 0);"/></g></g></g></g></g></g></g></g></g></svg>