<svg width="24" xmlns="http://www.w3.org/2000/svg" height="24" id="screenshot-5fa9c06b-70a1-80a6-8006-9d1c0576863f" viewBox="0 0 24 24" xmlns:xlink="http://www.w3.org/1999/xlink" fill="none" version="1.1"><g id="shape-5fa9c06b-70a1-80a6-8006-9d1c0576863f" rx="0" ry="0" style="fill: rgb(0, 0, 0);"><g id="shape-5fa9c06b-70a1-80a6-8006-9d1c0576ee55" style="display: none;"><g class="fills" id="fills-5fa9c06b-70a1-80a6-8006-9d1c0576ee55"><rect width="24" height="24" x="0" transform="matrix(1.000000, 0.000000, 0.000000, 1.000000, 0.000000, 0.000000)" style="fill: none;" ry="0" fill="none" rx="0" y="0"/></g></g><g id="shape-5fa9c06b-70a1-80a6-8006-9d1c0576ee56"><g class="fills" id="fills-5fa9c06b-70a1-80a6-8006-9d1c0576ee56"><path d="M14,14.251953125L14,16.34130859375C13.3743896484375,16.1201171875,12.7012939453125,16,12,16C8.686279296875,16,6,18.6865234375,6,22L4,22C4,17.58154296875,7.58172607421875,14,12,14C12.69061279296875,14,13.36077880859375,14.08740234375,14,14.251953125ZM12,13C8.68499755859375,13,6,10.31494140625,6,7C6,3.68505859375,8.68499755859375,1,12,1C15.31500244140625,1,18,3.68505859375,18,7C18,10.31494140625,15.31500244140625,13,12,13ZM12,11C14.21002197265625,11,16,9.2099609375,16,7C16,4.7900390625,14.21002197265625,3,12,3C9.78997802734375,3,8,4.7900390625,8,7C8,9.2099609375,9.78997802734375,11,12,11ZM19,17.5859375L21.12127685546875,15.46435546875L22.5355224609375,16.87890625L20.4141845703125,19L22.5355224609375,21.12109375L21.12127685546875,22.53564453125L19,20.4140625L16.87872314453125,22.53564453125L15.4644775390625,21.12109375L17.5858154296875,19L15.4644775390625,16.87890625L16.87872314453125,15.46435546875L19,17.5859375Z" style="fill: rgb(0, 0, 0);"/></g></g></g></svg>