<svg width="24" xmlns="http://www.w3.org/2000/svg" height="24" id="screenshot-5fa9c06b-70a1-80a6-8006-9d1c057170ca" viewBox="0 0 24 24" xmlns:xlink="http://www.w3.org/1999/xlink" fill="none" version="1.1"><g id="shape-5fa9c06b-70a1-80a6-8006-9d1c057170ca" rx="0" ry="0" style="fill: rgb(0, 0, 0);"><g id="shape-5fa9c06b-70a1-80a6-8006-9d1c057171eb" style="display: none;"><g class="fills" id="fills-5fa9c06b-70a1-80a6-8006-9d1c057171eb"><rect width="24" height="24" x="0" transform="matrix(1.000000, 0.000000, 0.000000, 1.000000, 0.000000, 0.000000)" style="fill: none;" ry="0" fill="none" rx="0" y="0"/></g></g><g id="shape-5fa9c06b-70a1-80a6-8006-9d1c057171ec"><g class="fills" id="fills-5fa9c06b-70a1-80a6-8006-9d1c057171ec"><path d="M16.7574462890625,2.9969482421875L14.7574462890625,4.9969482421875L5,4.9969482421875L5,18.9969482421875L19,18.9969482421875L19,9.2393798828125L21,7.2393798828125L21,19.9969482421875C21,20.5491943359375,20.55224609375,20.9969482421875,20,20.9969482421875L4,20.9969482421875C3.44775390625,20.9969482421875,3,20.5491943359375,3,19.9969482421875L3,3.9969482421875C3,3.4444580078125,3.44775390625,2.9969482421875,4,2.9969482421875L16.7574462890625,2.9969482421875ZM20.4853515625,2.0972900390625L21.8995361328125,3.5115966796875L12.7071533203125,12.7039794921875L11.29541015625,12.7064208984375L11.2928466796875,11.2896728515625L20.4853515625,2.0972900390625Z" style="fill: rgb(0, 0, 0);"/></g></g></g></svg>