<svg width="24" xmlns="http://www.w3.org/2000/svg" height="24" id="screenshot-5fa9c06b-70a1-80a6-8006-9d1c0575f73d" viewBox="0 0 24 24" xmlns:xlink="http://www.w3.org/1999/xlink" fill="none" version="1.1"><g id="shape-5fa9c06b-70a1-80a6-8006-9d1c0575f73d"><g class="frame-container-wrapper"><g class="frame-container-blur"><g class="frame-container-shadows"><g fill="none"><g class="fills" id="fills-5fa9c06b-70a1-80a6-8006-9d1c0575f73d"><rect rx="0" ry="0" x="0" y="0" width="24" height="24" transform="matrix(1.000000, 0.000000, 0.000000, 1.000000, 0.000000, 0.000000)" class="frame-background"/></g><g class="frame-children"><g id="shape-5fa9c06b-70a1-80a6-8006-9d1c05762137" rx="0" ry="0" style="fill: rgb(0, 0, 0);"><g id="shape-5fa9c06b-70a1-80a6-8006-9d1c05762138" style="display: none;"><g class="fills" id="fills-5fa9c06b-70a1-80a6-8006-9d1c05762138"><rect width="24" height="24" x="0" transform="matrix(1.000000, 0.000000, 0.000000, 1.000000, 0.000000, 0.000000)" style="fill: none;" ry="0" fill="none" rx="0" y="0"/></g></g><g id="shape-5fa9c06b-70a1-80a6-8006-9d1c05762139"><g class="fills" id="fills-5fa9c06b-70a1-80a6-8006-9d1c05762139"><path d="M12.000244140625,3C17.3924560546875,3,21.87841796875,6.8798828125,22.81884765625,12C21.87841796875,17.1201171875,17.3924560546875,21,12.000244140625,21C6.608154296875,21,2.1221923828125,17.1201171875,1.181640625,12C2.1221923828125,6.8798828125,6.608154296875,3,12.000244140625,3ZM12.000244140625,19C16.23583984375,19,19.8603515625,16.0517578125,20.7777099609375,12C19.8603515625,7.9482421875,16.23583984375,5,12.000244140625,5C7.7646484375,5,4.1402587890625,7.9482421875,3.2227783203125,12C4.1402587890625,16.0517578125,7.7646484375,19,12.000244140625,19ZM12.000244140625,16.5C9.5150146484375,16.5,7.500244140625,14.4853515625,7.500244140625,12C7.500244140625,9.5146484375,9.5150146484375,7.5,12.000244140625,7.5C14.4854736328125,7.5,16.500244140625,9.5146484375,16.500244140625,12C16.500244140625,14.4853515625,14.4854736328125,16.5,12.000244140625,16.5ZM12.000244140625,14.5C13.3809814453125,14.5,14.500244140625,13.380859375,14.500244140625,12C14.500244140625,10.619140625,13.3809814453125,9.5,12.000244140625,9.5C10.61962890625,9.5,9.500244140625,10.619140625,9.500244140625,12C9.500244140625,13.380859375,10.61962890625,14.5,12.000244140625,14.5Z" style="fill: rgb(0, 0, 0);"/></g></g></g></g></g></g></g></g></g></svg>