<svg width="24" xmlns="http://www.w3.org/2000/svg" height="24" id="screenshot-5fa9c06b-70a1-80a6-8006-9d1c0575f73f" viewBox="0 0 24 24" xmlns:xlink="http://www.w3.org/1999/xlink" fill="none" version="1.1"><g id="shape-5fa9c06b-70a1-80a6-8006-9d1c0575f73f"><g class="frame-container-wrapper"><g class="frame-container-blur"><g class="frame-container-shadows"><g fill="none"><g class="fills" id="fills-5fa9c06b-70a1-80a6-8006-9d1c0575f73f"><rect rx="0" ry="0" x="0" y="0" width="24" height="24" transform="matrix(1.000000, 0.000000, 0.000000, 1.000000, 0.000000, 0.000000)" class="frame-background"/></g><g class="frame-children"><g id="shape-5fa9c06b-70a1-80a6-8006-9d1c0576213d" rx="0" ry="0" style="fill: rgb(0, 0, 0);"><g id="shape-5fa9c06b-70a1-80a6-8006-9d1c0576213e" style="display: none;"><g class="fills" id="fills-5fa9c06b-70a1-80a6-8006-9d1c0576213e"><rect width="24" height="24" x="0" transform="matrix(1.000000, 0.000000, 0.000000, 1.000000, 0.000000, 0.000000)" style="fill: none;" ry="0" fill="none" rx="0" y="0"/></g></g><g id="shape-5fa9c06b-70a1-80a6-8006-9d1c0576213f"><g class="fills" id="fills-5fa9c06b-70a1-80a6-8006-9d1c0576213f"><path d="M17.8826904296875,19.296875C16.181396484375,20.37548828125,14.163818359375,21,12.000244140625,21C6.608154296875,21,2.1221923828125,17.12060546875,1.181640625,12C1.6182861328125,9.623046875,2.8193359375,7.5126953125,4.5205078125,5.9345703125L1.3936767578125,2.8076171875L2.807861328125,1.3935546875L22.60693359375,21.1923828125L21.1927490234375,22.60693359375L17.8826904296875,19.296875ZM5.935546875,7.349609375C4.606689453125,8.56005859375,3.6378173828125,10.1669921875,3.2227783203125,12C4.1402587890625,16.05224609375,7.7646484375,19,12.000244140625,19C13.5997314453125,19,15.112060546875,18.57958984375,16.42431640625,17.83837890625L14.39599609375,15.81005859375C13.7022705078125,16.2470703125,12.880859375,16.5,12.000244140625,16.5C9.5150146484375,16.5,7.500244140625,14.4853515625,7.500244140625,12C7.500244140625,11.11962890625,7.753173828125,10.29833984375,8.1903076171875,9.6044921875L5.935546875,7.349609375ZM12.9139404296875,14.328125L9.6724853515625,11.08642578125C9.561279296875,11.36962890625,9.500244140625,11.677734375,9.500244140625,12C9.500244140625,13.380859375,10.61962890625,14.5,12.000244140625,14.5C12.32275390625,14.5,12.630859375,14.43896484375,12.9139404296875,14.328125ZM20.8067626953125,16.59228515625L19.3759765625,15.16162109375C20.0318603515625,14.2265625,20.515380859375,13.15869140625,20.7777099609375,12C19.8603515625,7.9482421875,16.23583984375,5,12.000244140625,5C11.1544189453125,5,10.3328857421875,5.11767578125,9.552490234375,5.33837890625L7.9744873046875,3.76025390625C9.2213134765625,3.26953125,10.579345703125,3,12.000244140625,3C17.3924560546875,3,21.87841796875,6.8798828125,22.81884765625,12C22.5067138671875,13.69970703125,21.8038330078125,15.2626953125,20.8067626953125,16.59228515625ZM11.722900390625,7.5087890625C11.8145751953125,7.5029296875,11.9071044921875,7.5,12.000244140625,7.5C14.4854736328125,7.5,16.500244140625,9.5146484375,16.500244140625,12C16.500244140625,12.09326171875,16.4974365234375,12.18603515625,16.491943359375,12.27734375L11.722900390625,7.5087890625Z" style="fill: rgb(0, 0, 0);"/></g></g></g></g></g></g></g></g></g></svg>