<svg width="18.414" xmlns="http://www.w3.org/2000/svg" height="21.243" id="screenshot-5fa9c06b-70a1-80a6-8006-9d1c0576ee4a" viewBox="1022 5975 18.414 21.243" xmlns:xlink="http://www.w3.org/1999/xlink" fill="none" version="1.1"><g id="shape-5fa9c06b-70a1-80a6-8006-9d1c0576ee4a"><g class="fills" id="fills-5fa9c06b-70a1-80a6-8006-9d1c0576ee4a"><path d="M1032,5988.251953125L1032,5990.34130859375C1031.3743896484375,5990.1201171875,1030.7012939453125,5990,1030,5990C1026.686279296875,5990,1024,5992.6865234375,1024,5996L1022,5996C1022,5991.58154296875,1025.581787109375,5988,1030,5988C1030.690673828125,5988,1031.36083984375,5988.08740234375,1032,5988.251953125ZM1030,5987C1026.68505859375,5987,1024,5984.31494140625,1024,5981C1024,5977.68505859375,1026.68505859375,5975,1030,5975C1033.31494140625,5975,1036,5977.68505859375,1036,5981C1036,5984.31494140625,1033.31494140625,5987,1030,5987ZM1030,5985C1032.2099609375,5985,1034,5983.2099609375,1034,5981C1034,5978.7900390625,1032.2099609375,5977,1030,5977C1027.7900390625,5977,1026,5978.7900390625,1026,5981C1026,5983.2099609375,1027.7900390625,5985,1030,5985ZM1036.5858154296875,5991L1034.75732421875,5989.17138671875L1036.171630859375,5987.75732421875L1040.4141845703125,5992L1036.171630859375,5996.24267578125L1034.75732421875,5994.82861328125L1036.5858154296875,5993L1033,5993L1033,5991L1036.5858154296875,5991Z" style="fill: rgb(255, 255, 255); fill-opacity: 1;"/></g></g></svg>