<svg width="24" xmlns="http://www.w3.org/2000/svg" height="24" id="screenshot-5fa9c06b-70a1-80a6-8006-9d1c057685f9" viewBox="0 0 24 24" xmlns:xlink="http://www.w3.org/1999/xlink" fill="none" version="1.1"><g id="shape-5fa9c06b-70a1-80a6-8006-9d1c057685f9" rx="0" ry="0" style="fill: rgb(0, 0, 0);"><g id="shape-5fa9c06b-70a1-80a6-8006-9d1c057686aa" style="display: none;"><g class="fills" id="fills-5fa9c06b-70a1-80a6-8006-9d1c057686aa"><rect width="24" height="24" x="0" transform="matrix(1.000000, 0.000000, 0.000000, 1.000000, 0.000000, 0.000000)" style="fill: none;" ry="0" fill="none" rx="0" y="0"/></g></g><g id="shape-5fa9c06b-70a1-80a6-8006-9d1c057686ab"><g class="fills" id="fills-5fa9c06b-70a1-80a6-8006-9d1c057686ab"><path d="M2,22C2,17.58154296875,5.5816650390625,14,10,14C14.4183349609375,14,18,17.58154296875,18,22L16,22C16,18.6865234375,13.313720703125,16,10,16C6.686279296875,16,4,18.6865234375,4,22L2,22ZM10,13C6.68505859375,13,4,10.31494140625,4,7C4,3.68505859375,6.68505859375,1,10,1C13.31494140625,1,16,3.68505859375,16,7C16,10.31494140625,13.31494140625,13,10,13ZM10,11C12.2099609375,11,14,9.2099609375,14,7C14,4.7900390625,12.2099609375,3,10,3C7.7900390625,3,6,4.7900390625,6,7C6,9.2099609375,7.7900390625,11,10,11ZM18.28369140625,14.70263671875C21.064453125,15.9560546875,23,18.751953125,23,22L21,22C21,19.56396484375,19.54833984375,17.46728515625,17.4627685546875,16.52734375L18.28369140625,14.70263671875ZM17.59619140625,3.4130859375C19.5943603515625,4.23681640625,21,6.20361328125,21,8.5C21,11.3701171875,18.80419921875,13.72509765625,16,13.9775390625L16,11.96484375C17.6966552734375,11.72216796875,19,10.26416015625,19,8.5C19,7.119140625,18.20166015625,5.92626953125,17.041015625,5.3564453125L17.59619140625,3.4130859375Z" style="fill: rgb(0, 0, 0);"/></g></g></g></svg>