<svg width="24" xmlns="http://www.w3.org/2000/svg" height="24" id="screenshot-5fa9c06b-70a1-80a6-8006-9d1c057595c1" viewBox="0 0 24 24" xmlns:xlink="http://www.w3.org/1999/xlink" fill="none" version="1.1"><g id="shape-5fa9c06b-70a1-80a6-8006-9d1c057595c1"><g class="frame-container-wrapper"><g class="frame-container-blur"><g class="frame-container-shadows"><g fill="none"><g class="fills" id="fills-5fa9c06b-70a1-80a6-8006-9d1c057595c1"><rect rx="0" ry="0" x="0" y="0" width="24" height="24" transform="matrix(1.000000, 0.000000, 0.000000, 1.000000, 0.000000, 0.000000)" class="frame-background"/></g><g class="frame-children"><g id="shape-5fa9c06b-70a1-80a6-8006-9d1c0575f833" rx="0" ry="0" style="fill: rgb(0, 0, 0);"><g id="shape-5fa9c06b-70a1-80a6-8006-9d1c0575f834" style="display: none;"><g class="fills" id="fills-5fa9c06b-70a1-80a6-8006-9d1c0575f834"><rect width="24" height="24" x="0" transform="matrix(1.000000, 0.000000, 0.000000, 1.000000, 0.000000, 0.000000)" style="fill: none;" ry="0" fill="none" rx="0" y="0"/></g></g><g id="shape-5fa9c06b-70a1-80a6-8006-9d1c0575f835"><g class="fills" id="fills-5fa9c06b-70a1-80a6-8006-9d1c0575f835"><path d="M11,11L11,7L13,7L13,11L17,11L17,13L13,13L13,17L11,17L11,13L7,13L7,11L11,11ZM12,22C6.4771728515625,22,2,17.52294921875,2,12C2,6.47705078125,6.4771728515625,2,12,2C17.5228271484375,2,22,6.47705078125,22,12C22,17.52294921875,17.5228271484375,22,12,22ZM12,20C16.418212890625,20,20,16.41845703125,20,12C20,7.58154296875,16.418212890625,4,12,4C7.58172607421875,4,4,7.58154296875,4,12C4,16.41845703125,7.58172607421875,20,12,20Z" style="fill: rgb(0, 0, 0);"/></g></g></g></g></g></g></g></g></g></svg>