<svg width="24" xmlns="http://www.w3.org/2000/svg" height="24" id="screenshot-5fa9c06b-70a1-80a6-8006-9d1c0575f7cf" viewBox="0 0 24 24" xmlns:xlink="http://www.w3.org/1999/xlink" fill="none" version="1.1"><g id="shape-5fa9c06b-70a1-80a6-8006-9d1c0575f7cf"><g class="frame-container-wrapper"><g class="frame-container-blur"><g class="frame-container-shadows"><g fill="none"><g class="fills" id="fills-5fa9c06b-70a1-80a6-8006-9d1c0575f7cf"><rect rx="0" ry="0" x="0" y="0" width="24" height="24" transform="matrix(1.000000, 0.000000, 0.000000, 1.000000, 0.000000, 0.000000)" class="frame-background"/></g><g class="frame-children"><g id="shape-5fa9c06b-70a1-80a6-8006-9d1c05767c99" rx="0" ry="0" style="fill: rgb(0, 0, 0);"><g id="shape-5fa9c06b-70a1-80a6-8006-9d1c05767c9a" style="display: none;"><g class="fills" id="fills-5fa9c06b-70a1-80a6-8006-9d1c05767c9a"><rect width="24" height="24" x="0" transform="matrix(1.000000, 0.000000, 0.000000, 1.000000, 0.000000, 0.000000)" style="fill: none;" ry="0" fill="none" rx="0" y="0"/></g></g><g id="shape-5fa9c06b-70a1-80a6-8006-9d1c05767c9b"><g class="fills" id="fills-5fa9c06b-70a1-80a6-8006-9d1c05767c9b"><path d="M18.031005859375,16.61669921875L22.313720703125,20.8994140625L20.8994140625,22.3134765625L16.61669921875,18.03076171875C15.076904296875,19.26318359375,13.1240234375,20,11,20C6.031982421875,20,2,15.9677734375,2,11C2,6.0322265625,6.031982421875,2,11,2C15.968017578125,2,20,6.0322265625,20,11C20,13.1240234375,19.262939453125,15.07666015625,18.031005859375,16.61669921875ZM16.024658203125,15.875C17.24755859375,14.61474609375,18,12.8955078125,18,11C18,7.13232421875,14.867431640625,4,11,4C7.132568359375,4,4,7.13232421875,4,11C4,14.86767578125,7.132568359375,18,11,18C12.8955078125,18,14.614501953125,17.24755859375,15.874755859375,16.02490234375L16.024658203125,15.875Z" style="fill: rgb(0, 0, 0);"/></g></g></g></g></g></g></g></g></g></svg>