<svg width="1920" height="1080" viewBox="0 0 1920 1080" fill="none" xmlns="http://www.w3.org/2000/svg">
<rect width="1920" height="1080" fill="url(#paint0_linear_2001_2)"/>
<path fill-rule="evenodd" clip-rule="evenodd" d="M463.678 477.783C461.976 478.946 460.473 481.034 460.205 482.604C459.882 484.505 460.304 485.94 461.891 488.327C464.469 492.202 464.943 494.539 463.853 497.989C463.534 498.998 463.272 500.051 463.27 500.329C463.263 501.232 464.204 500.868 465.51 499.462C467.91 496.879 468.986 493.505 468.26 490.839C468.084 490.194 467.138 488.338 466.158 486.714C463.984 483.112 463.812 482.211 464.84 479.789C466.092 476.838 465.799 476.333 463.678 477.783ZM454.818 483.84C453.319 485.347 452.768 486.682 452.768 488.808C452.768 490.617 452.83 490.779 454.415 493.086C457.022 496.879 457.309 498.043 456.391 501.108C455.82 503.014 456.134 503.49 457.379 502.61C458.584 501.759 460.01 499.448 460.309 497.862C460.583 496.406 460.307 494.028 459.74 492.972C459.543 492.603 458.699 491.311 457.864 490.101C456.181 487.657 455.824 486.45 456.241 484.607C456.69 482.624 456.259 482.392 454.818 483.84ZM449.414 501.461C440.577 503.104 435.303 505.746 434.352 509.006C433.881 510.621 433.883 518.504 434.356 521.52C434.556 522.792 435.119 525.132 435.607 526.719C437.215 531.946 439.128 535.038 443.575 539.6C447.16 543.277 447.441 543.706 447.993 546.346C448.496 548.748 448.939 549.534 450.232 550.316C451.106 550.845 451.762 550.88 460.709 550.881C468.781 550.882 470.433 550.811 471.42 550.419C472.747 549.892 473.596 548.709 473.889 546.977C474.378 544.084 474.911 543.146 477.797 540.096C479.348 538.457 481.329 536.243 482.199 535.176C483.069 534.109 483.922 533.232 484.095 533.228C484.267 533.224 485.689 533.097 487.255 532.946C489.512 532.728 490.556 532.463 492.294 531.667C498.134 528.99 501.16 522.937 499.587 517.077C498.448 512.829 495.183 510.671 489.896 510.671C487.649 510.671 487.47 510.628 487.47 510.081C487.47 508.476 485.216 505.817 482.831 504.61C479.797 503.074 473.955 501.527 470.054 501.226C467.36 501.018 466.765 501.259 466.765 502.562C466.765 503.864 467.565 504.271 471.314 504.881C479.304 506.18 483.971 508.443 483.971 511.016C483.971 513.398 478.322 516.079 470.557 517.383C465.359 518.256 456.208 518.254 450.994 517.38C445.621 516.478 440.249 514.428 438.562 512.635C437.455 511.46 437.44 510.587 438.502 509.387C440.232 507.432 443.693 506.11 449.852 505.049L453.497 504.421L453.584 502.773L453.672 501.125L452.272 501.157C451.502 501.175 450.216 501.312 449.414 501.461ZM460.787 506.529C456.684 507.441 453.757 509.895 452.348 513.605C451.459 515.946 451.797 516.159 453.788 514.51C456.368 512.375 459.097 510.712 460.852 510.206C463.132 509.549 463.236 509.82 461.159 511.005C459.068 512.198 454.933 515.196 454.12 516.109C453.585 516.71 453.588 516.722 454.359 516.914C454.789 517.021 456.558 517.05 458.291 516.98C462.124 516.823 463.879 516.102 466.081 513.78C467.789 511.979 470.388 507.934 470.181 507.4C469.919 506.724 462.856 506.069 460.787 506.529ZM493.103 515.046C495.386 516.21 496.494 518.782 495.921 521.592C495.079 525.724 491.903 528.447 487.204 529.065C486.388 529.172 485.721 529.175 485.721 529.071C485.721 528.966 485.98 527.875 486.297 526.647C487.208 523.115 487.762 519.466 487.762 516.998V514.721H490.114C491.408 514.721 492.753 514.867 493.103 515.046ZM439.383 517.697C440.299 518.309 440.389 518.506 440.569 520.303C440.805 522.656 441.469 525.361 442.437 527.914C443.357 530.338 443.988 531.559 446.132 535.063C447.088 536.624 447.817 537.954 447.753 538.018C447.532 538.236 443.537 534.251 442.599 532.877C440.884 530.367 439.375 526.819 438.627 523.545C437.91 520.405 437.66 517.036 438.144 517.036C438.28 517.036 438.838 517.333 439.383 517.697ZM450.731 553.858C449.613 554.419 449.312 555.622 450.045 556.596L450.643 557.391L461.013 557.467L471.383 557.543L472.007 556.756C472.746 555.824 472.601 554.757 471.632 553.998C471.056 553.548 470.038 553.498 461.225 553.496C453.957 553.495 451.27 553.587 450.731 553.858ZM450.843 560.263C449.4 560.886 449.127 562.239 450.235 563.271C450.901 563.892 451.038 563.9 461.12 563.9H471.33L471.992 563.201C472.879 562.264 472.61 560.889 471.421 560.279C470.251 559.678 452.229 559.665 450.843 560.263ZM452.768 566.751C452.768 567.267 454.783 569.589 455.867 570.322C457.18 571.209 459.703 572 461.225 572C462.806 572 465.057 571.25 466.425 570.266C467.571 569.443 469.39 567.285 469.39 566.749C469.39 566.614 465.65 566.504 461.079 566.504C456.508 566.504 452.768 566.615 452.768 566.751Z" fill="white"/>
<path d="M1449.33 503.07C1455.09 503.033 1460.13 504.26 1464.45 506.749C1468.85 509.238 1472.11 512.383 1474.25 516.185L1474.17 504.009L1485.37 503.939L1485.8 572.122C1485.84 578.21 1484.58 583.616 1482.01 588.34C1479.44 593.145 1475.73 596.903 1470.88 599.612C1466.1 602.321 1460.51 603.695 1454.1 603.736C1445.33 603.791 1438.02 601.767 1432.14 597.664C1426.27 593.561 1422.79 587.941 1421.69 580.805L1432.65 580.736C1433.89 584.787 1436.43 588.018 1440.26 590.429C1444.09 592.921 1448.68 594.151 1454.04 594.117C1460.13 594.079 1465.07 592.14 1468.86 588.301C1472.73 584.461 1474.64 579.092 1474.6 572.192L1474.51 558.191C1472.35 562.101 1469.12 565.368 1464.83 567.992C1460.55 570.617 1455.52 571.947 1449.76 571.983C1443.83 572.021 1438.43 570.593 1433.54 567.702C1428.73 564.81 1424.93 560.734 1422.14 555.476C1419.35 550.217 1417.93 544.219 1417.89 537.482C1417.84 530.664 1419.19 524.689 1421.91 519.558C1424.64 514.346 1428.39 510.304 1433.16 507.433C1438.01 504.561 1443.4 503.107 1449.33 503.07ZM1474.38 537.249C1474.35 532.216 1473.31 527.839 1471.25 524.118C1469.2 520.397 1466.42 517.573 1462.92 515.647C1459.5 513.639 1455.72 512.649 1451.58 512.675C1447.44 512.701 1443.67 513.698 1440.27 515.668C1436.88 517.637 1434.18 520.495 1432.17 524.242C1430.16 527.989 1429.18 532.378 1429.21 537.411C1429.24 542.524 1430.28 546.982 1432.34 550.785C1434.39 554.506 1437.13 557.37 1440.55 559.378C1443.97 561.305 1447.75 562.255 1451.89 562.229C1456.03 562.203 1459.8 561.205 1463.2 559.236C1466.67 557.185 1469.41 554.286 1471.42 550.539C1473.43 546.711 1474.41 542.281 1474.38 537.249Z" fill="white"/>
<path d="M1376.44 503.406C1384.55 503.355 1391.15 505.789 1396.21 510.709C1401.27 515.548 1403.83 522.594 1403.89 531.847L1404.14 571.174L1393.18 571.243L1392.94 533.499C1392.9 526.843 1391.21 521.78 1387.86 518.311C1384.5 514.76 1379.95 513.003 1374.19 513.039C1368.34 513.076 1363.68 514.932 1360.22 518.606C1356.83 522.28 1355.16 527.608 1355.2 534.588L1355.44 571.48L1344.36 571.55L1343.94 504.828L1355.02 504.758L1355.08 514.255C1357.25 510.832 1360.19 508.176 1363.91 506.285C1367.72 504.394 1371.89 503.435 1376.44 503.406Z" fill="white"/>
<path d="M1319.63 494.144C1317.52 494.157 1315.73 493.438 1314.26 491.986C1312.79 490.534 1312.04 488.753 1312.03 486.642C1312.02 484.532 1312.74 482.742 1314.19 481.271C1315.64 479.801 1317.42 479.059 1319.53 479.046C1321.56 479.033 1323.27 479.753 1324.66 481.206C1326.13 482.657 1326.87 484.439 1326.89 486.549C1326.9 488.659 1326.18 490.45 1324.73 491.92C1323.36 493.39 1321.66 494.131 1319.63 494.144ZM1325.05 504.946L1325.47 571.668L1314.39 571.738L1313.97 505.016L1325.05 504.946Z" fill="white"/>
<path d="M1227.76 538.677C1227.72 531.859 1229.06 525.884 1231.79 520.753C1234.52 515.541 1238.27 511.499 1243.04 508.628C1247.89 505.756 1253.32 504.302 1259.33 504.264C1264.52 504.231 1269.36 505.419 1273.84 507.826C1278.32 510.151 1281.75 513.255 1284.12 517.136L1283.9 481.827L1295.1 481.757L1295.67 571.856L1284.47 571.927L1284.39 559.386C1282.22 563.377 1279 566.685 1274.71 569.309C1270.42 571.852 1265.4 573.142 1259.64 573.178C1253.71 573.216 1248.3 571.788 1243.42 568.897C1238.61 566.005 1234.81 561.93 1232.02 556.671C1229.22 551.412 1227.8 545.414 1227.76 538.677ZM1284.26 538.444C1284.23 533.411 1283.18 529.034 1281.13 525.313C1279.08 521.592 1276.3 518.769 1272.8 516.842C1269.38 514.835 1265.6 513.844 1261.46 513.87C1257.32 513.896 1253.55 514.893 1250.15 516.863C1246.75 518.832 1244.05 521.691 1242.05 525.437C1240.04 529.184 1239.05 533.573 1239.09 538.606C1239.12 543.72 1240.16 548.178 1242.21 551.98C1244.27 555.701 1247 558.565 1250.43 560.573C1253.85 562.5 1257.63 563.45 1261.77 563.424C1265.91 563.398 1269.68 562.4 1273.07 560.431C1276.55 558.38 1279.29 555.481 1281.3 551.734C1283.3 547.906 1284.29 543.476 1284.26 538.444Z" fill="white"/>
<path d="M1186.31 504.6C1194.43 504.549 1201.02 506.984 1206.09 511.904C1211.15 516.742 1213.71 523.788 1213.77 533.042L1214.01 572.369L1203.06 572.438L1202.82 534.693C1202.78 528.037 1201.08 522.975 1197.73 519.505C1194.38 515.955 1189.82 514.197 1184.06 514.234C1178.22 514.27 1173.56 516.126 1170.09 519.801C1166.71 523.475 1165.04 528.802 1165.08 535.783L1165.31 572.675L1154.23 572.744L1153.81 506.022L1164.89 505.953L1164.95 515.45C1167.12 512.027 1170.07 509.37 1173.79 507.48C1177.59 505.589 1181.77 504.629 1186.31 504.6Z" fill="white"/>
<path d="M1135.1 506.14L1135.52 572.863L1124.44 572.932L1124.38 563.07C1122.29 566.492 1119.35 569.19 1115.54 571.162C1111.82 573.052 1107.69 574.012 1103.14 574.04C1097.95 574.073 1093.27 573.047 1089.12 570.962C1084.97 568.797 1081.66 565.571 1079.2 561.284C1076.82 556.997 1075.61 551.769 1075.57 545.6L1075.32 506.516L1086.28 506.447L1086.52 544.07C1086.56 550.645 1088.25 555.707 1091.6 559.258C1094.95 562.727 1099.51 564.444 1105.27 564.408C1111.2 564.37 1115.86 562.515 1119.24 558.841C1122.63 555.167 1124.3 549.839 1124.26 542.859L1124.03 506.21L1135.1 506.14Z" fill="white"/>
<path d="M1062.44 488.454L1062.49 497.464L1025.6 497.696L1025.78 526.309L1055.73 526.12L1055.79 535.13L1025.84 535.319L1026.08 573.55L1015 573.62L1014.46 488.756L1062.44 488.454Z" fill="white"/>
<path d="M926.908 540.202C926.865 533.384 928.166 527.328 930.812 522.036C933.539 516.742 937.206 512.66 941.815 509.79C946.505 506.92 951.732 505.466 957.495 505.43C962.527 505.399 966.917 506.386 970.664 508.391C974.491 510.397 977.551 512.934 979.843 516.005L979.783 506.386L996.951 506.278L997.374 573.731L980.207 573.839L980.145 563.976C977.973 567.156 974.946 569.813 971.063 571.948C967.261 574.001 962.843 575.044 957.811 575.075C952.129 575.111 946.925 573.682 942.198 570.79C937.553 567.897 933.834 563.821 931.041 558.562C928.329 553.222 926.951 547.102 926.908 540.202ZM979.995 540.112C979.969 535.973 979.135 532.447 977.493 529.535C975.851 526.542 973.645 524.283 970.876 522.758C968.106 521.152 965.138 520.359 961.972 520.379C958.807 520.398 955.889 521.188 953.22 522.747C950.551 524.306 948.374 526.593 946.688 529.607C945.083 532.539 944.294 536.034 944.319 540.093C944.345 544.151 945.179 547.718 946.821 550.792C948.545 553.785 950.751 556.084 953.44 557.691C956.21 559.297 959.137 560.09 962.222 560.071C965.387 560.051 968.345 559.261 971.095 557.702C973.845 556.061 976.022 553.774 977.627 550.842C979.232 547.829 980.021 544.252 979.995 540.112Z" fill="white"/>
<path d="M888.566 505.985C893.68 505.953 898.233 507.061 902.224 509.309C906.215 511.475 909.32 514.743 911.54 519.113C913.839 523.4 915.008 528.588 915.047 534.676L915.295 574.246L898.25 574.354L898.015 537.096C897.982 531.739 896.617 527.648 893.92 524.824C891.223 521.919 887.561 520.481 882.935 520.51C878.227 520.54 874.502 522.024 871.761 524.964C869.1 527.821 867.786 531.929 867.82 537.286L868.054 574.543L851.008 574.65L850.442 484.551L867.488 484.444L867.683 515.492C869.856 512.556 872.764 510.265 876.407 508.618C880.049 506.891 884.102 506.013 888.566 505.985Z" fill="white"/>
<path d="M773.17 541.412C773.126 534.432 774.508 528.335 777.316 523.122C780.124 517.828 784.035 513.745 789.05 510.872C794.064 507.919 799.818 506.421 806.312 506.38C814.672 506.328 821.585 508.395 827.05 512.582C832.596 516.687 836.326 522.508 838.24 530.045L819.855 530.16C818.862 527.244 817.184 524.982 814.82 523.373C812.536 521.683 809.69 520.849 806.281 520.87C801.411 520.901 797.566 522.711 794.748 526.3C791.929 529.808 790.54 534.809 790.581 541.303C790.621 547.715 792.073 552.698 794.936 556.252C797.799 559.724 801.666 561.445 806.536 561.415C813.435 561.371 817.921 558.259 819.993 552.076L838.378 551.961C836.557 559.278 832.9 565.105 827.407 569.442C821.915 573.778 815.029 575.973 806.749 576.025C800.256 576.065 794.484 574.681 789.433 571.872C784.382 568.981 780.42 564.948 777.546 559.771C774.672 554.512 773.213 548.393 773.17 541.412Z" fill="white"/>
<path d="M750.071 521.832L750.276 554.463C750.29 556.735 750.828 558.396 751.89 559.445C753.033 560.412 754.903 560.887 757.5 560.871L765.414 560.821L765.505 575.188L754.79 575.255C740.423 575.346 733.196 568.41 733.108 554.449L732.903 521.94L724.868 521.991L724.78 507.989L732.816 507.938L732.711 491.258L749.878 491.15L749.983 507.83L765.081 507.735L765.169 521.737L750.071 521.832Z" fill="white"/>
<path d="M643.446 541.983C643.403 535.165 644.705 529.109 647.35 523.817C650.077 518.523 653.744 514.441 658.353 511.571C663.043 508.701 668.27 507.247 674.033 507.211C679.066 507.18 683.455 508.167 687.202 510.172C691.029 512.178 694.089 514.715 696.382 517.786L696.321 508.167L713.489 508.059L713.913 575.512L696.745 575.62L696.683 565.757C694.511 568.937 691.484 571.594 687.601 573.729C683.799 575.782 679.381 576.825 674.349 576.856C668.667 576.892 663.463 575.463 658.737 572.571C654.092 569.678 650.372 565.602 647.58 560.343C644.867 555.003 643.489 548.883 643.446 541.983ZM696.533 541.893C696.507 537.754 695.673 534.228 694.031 531.316C692.389 528.323 690.183 526.064 687.414 524.539C684.644 522.933 681.676 522.14 678.51 522.16C675.345 522.179 672.427 522.969 669.758 524.528C667.089 526.087 664.912 528.374 663.226 531.388C661.621 534.32 660.832 537.815 660.857 541.874C660.883 545.933 661.717 549.499 663.36 552.573C665.083 555.566 667.289 557.865 669.978 559.472C672.748 561.078 675.675 561.871 678.76 561.852C681.925 561.832 684.883 561.042 687.633 559.483C690.383 557.842 692.56 555.555 694.165 552.623C695.77 549.61 696.559 546.033 696.533 541.893Z" fill="white"/>
<path d="M630.656 491.046L631.19 576.031L614.144 576.138L613.797 520.861L591.376 576.282L578.47 576.363L555.232 521.229L555.58 576.507L538.534 576.614L538 491.628L557.359 491.507L584.786 554.528L611.419 491.167L630.656 491.046Z" fill="white"/>
<defs>
<linearGradient id="paint0_linear_2001_2" x1="960" y1="0" x2="960" y2="1080" gradientUnits="userSpaceOnUse">
<stop offset="0.5" stop-color="#44624A"/>
<stop offset="1" stop-color="#8BA888"/>
</linearGradient>
</defs>
</svg>
