<svg width="24" xmlns="http://www.w3.org/2000/svg" height="24" id="screenshot-5fa9c06b-70a1-80a6-8006-9d1c05768629" viewBox="0 0 24 24" xmlns:xlink="http://www.w3.org/1999/xlink" fill="none" version="1.1"><g id="shape-5fa9c06b-70a1-80a6-8006-9d1c05768629" rx="0" ry="0" style="fill: rgb(0, 0, 0);"><g id="shape-5fa9c06b-70a1-80a6-8006-9d1c0576870b" style="display: none;"><g class="fills" id="fills-5fa9c06b-70a1-80a6-8006-9d1c0576870b"><rect width="24" height="24" x="0" transform="matrix(1.000000, 0.000000, 0.000000, 1.000000, 0.000000, 0.000000)" style="fill: none;" ry="0" fill="none" rx="0" y="0"/></g></g><g id="shape-5fa9c06b-70a1-80a6-8006-9d1c0576870c"><g class="fills" id="fills-5fa9c06b-70a1-80a6-8006-9d1c0576870c"><path d="M4,22C4,17.58154296875,7.5816650390625,14,12,14C16.4183349609375,14,20,17.58154296875,20,22L18,22C18,18.6865234375,15.313720703125,16,12,16C8.686279296875,16,6,18.6865234375,6,22L4,22ZM12,13C8.68505859375,13,6,10.31494140625,6,7C6,3.68505859375,8.68505859375,1,12,1C15.31494140625,1,18,3.68505859375,18,7C18,10.31494140625,15.31494140625,13,12,13ZM12,11C14.2099609375,11,16,9.2099609375,16,7C16,4.7900390625,14.2099609375,3,12,3C9.7900390625,3,8,4.7900390625,8,7C8,9.2099609375,9.7900390625,11,12,11Z" style="fill: rgb(0, 0, 0);"/></g></g></g></svg>